<?xml version="1.0" encoding="UTF-8" standalone="no"?>
<svg
   xmlns:dc="http://purl.org/dc/elements/1.1/"
   xmlns:cc="http://creativecommons.org/ns#"
   xmlns:rdf="http://www.w3.org/1999/02/22-rdf-syntax-ns#"
   xmlns:svg="http://www.w3.org/2000/svg"
   xmlns="http://www.w3.org/2000/svg"
   xmlns:sodipodi="http://sodipodi.sourceforge.net/DTD/sodipodi-0.dtd"
   xmlns:inkscape="http://www.inkscape.org/namespaces/inkscape"
   width="200"
   height="200"
   version="1.1"
   id="svg596"
   sodipodi:docname="ShiroFinalest.svg"
   inkscape:version="1.0.2 (e86c870879, 2021-01-15, custom)">
  <metadata
     id="metadata602">
    <rdf:RDF>
      <cc:Work
         rdf:about="">
        <dc:format>image/svg+xml</dc:format>
        <dc:type
           rdf:resource="http://purl.org/dc/dcmitype/StillImage" />
        <dc:title />
      </cc:Work>
    </rdf:RDF>
  </metadata>
  <defs
     id="defs600" />
  <sodipodi:namedview
     pagecolor="#ffffff"
     bordercolor="#666666"
     borderopacity="1"
     objecttolerance="10"
     gridtolerance="10"
     guidetolerance="10"
     inkscape:pageopacity="0"
     inkscape:pageshadow="2"
     inkscape:window-width="1280"
     inkscape:window-height="971"
     id="namedview598"
     showgrid="false"
     inkscape:zoom="2.8284272"
     inkscape:cx="148.78154"
     inkscape:cy="114.15342"
     inkscape:window-x="1920"
     inkscape:window-y="0"
     inkscape:window-maximized="1"
     inkscape:current-layer="svg596"
     inkscape:document-rotation="0" />
  <path
     style="fill:#180c0b; stroke:none;"
     d="M93 0.424377C69.9778 3.48424 49.6591 10.5522 32.0147 26.2894C-9.47842 63.297 -9.56327 132.097 29.1698 170.83C51.5035 193.164 83.0526 202.665 114 198.715C128.156 196.908 141.971 192.035 154 184.302C212.582 146.641 214.433 58.8664 158 18.4282C148.395 11.5458 137.433 6.55547 126 3.62962C115.622 0.973709 103.689 -0.996277 93 0.424377z"
     id="path6" />
  <path
     style="fill:#c05b59; stroke:none;"
     d="M84 1L85 2L84 1M115 1L116 2L115 1z"
     id="path14" />
  <path
     style="fill:#fb0303; stroke:none;"
     d="M86 5.42824C72.7192 7.33513 60.351 11.8691 49 19.0548C29.7528 31.239 14.2303 50.9502 7.90972 73C-3.16613 111.639 12.2143 155.329 45 178.279C54.4964 184.926 64.8026 189.71 76 192.579C87.5412 195.536 101.165 196.267 113 194.572C126.836 192.59 140.313 188.08 152 180.326C164.599 171.967 175.229 161.095 182.852 148C206.261 107.786 195.969 54.4484 160 25.311C149.642 16.9206 136.833 10.9351 124 7.4892C112.234 4.32991 98.0616 3.6964 86 5.42824z"
     id="path18" />
  <path
     style="fill:#a09b98; stroke:none;"
     d="M132 5L133 6L132 5M64 6L65 7L64 6M135 6L136 7L135 6M61 7L62 8L61 7M138 7L139 8L138 7M59 8L60 9L59 8M140 8L141 9L140 8M57 9L58 10L57 9M142 9L143 10L142 9z"
     id="path20" />
  <path
     style="fill:#c05b59; stroke:none;"
     d="M55 10L56 11L55 10M144 10L145 11L144 10M53 11L54 12L53 11M146 11L147 12L146 11M51 12L52 13L51 12M148 12L149 13L148 12z"
     id="path22" />
  <path
     style="fill:#a09b98; stroke:none;"
     d="M49 13L50 14L49 13M150 13L151 14L150 13M46 15L47 16L46 15M153 15L154 16L153 15M44 16L45 17L44 16M155 16L156 17L155 16z"
     id="path24" />
  <path
     style="fill:#c05b59; stroke:none;"
     d="M43 17L44 18L43 17z"
     id="path26" />
  <path
     style="fill:#a09b98; stroke:none;"
     d="M156 17L157 18L156 17M40 19L41 20L40 19M159 19L160 20L159 19z"
     id="path28" />
  <path
     style="fill:#c05b59; stroke:none;"
     d="M39 20L40 21L39 20M160 20L161 21L160 20z"
     id="path30" />
  <path
     style="fill:#a09b98; stroke:none;"
     d="M36 22L37 23L36 22M163 22L164 23L163 22M35 23L36 24L35 23M164 23L165 24L164 23z"
     id="path32" />
  <path
     style="fill:#c05b59; stroke:none;"
     d="M34 24L35 25L34 24M165 24L166 25L165 24M26 32L27 33L26 32M173 32L174 33L173 32M25 33L26 34L25 33M174 33L175 34L174 33z"
     id="path34" />
  <path
     style="fill:#a09b98; stroke:none;"
     d="M24 34L25 35L24 34M175 34L176 35L175 34M23 35L24 36L23 35z"
     id="path36" />
  <path
     style="fill:#a09b98; stroke:none;"
     d="M176 35L177 36L176 35M22 36L23 37L22 36z"
     id="path40" />
  <path
     style="fill:#a09b98; stroke:none;"
     d="M177 36L178 37L177 36z"
     id="path48" />
  <path
     style="fill:#c05b59; stroke:none;"
     d="M20 39L21 40L20 39z"
     id="path58" />
  <path
     style="fill:#a09b98; stroke:none;"
     d="M142 39L143 40L142 39M157 39L158 40L157 39M179 39L180 40L179 39M19 40L20 41L19 40M140 40L141 41L140 40M158 40L159 41L158 40M180 40L181 41L180 40M138 41L139 42L138 41M159 41L160 42L159 41M137 42L138 43L137 42z"
     id="path60" />
  <path
     style="fill:#a09b98; stroke:none;"
     d="M17 43L18 44L17 43M182 43L183 44L182 43z"
     id="path64" />
  <path
     style="fill:#c05b59;stroke:none"
     d="m 130,42 1,1 z"
     id="path66" />
  <path
     style="fill:#a09b98; stroke:none;"
     d="M160 45L161 46L160 45M15 46L16 47L15 46z"
     id="path68" />
  <path
     style="fill:#c05b59;stroke:none"
     d="m 128,44 1,1 -1,-1 m 3,0 1,1 z"
     id="path70" />
  <path
     style="fill:#c05b59;stroke:none"
     d="m 150.667,45.3333 c -0.445,0.4445 0.611,0.3889 0.666,0.3334 0.445,-0.4445 -0.611,-0.3889 -0.666,-0.3334 z"
     id="path74" />
  <path
     style="fill:#a09b98;stroke:none"
     d="m 156,45 1,1 z"
     id="path76" />
  <path
     style="fill:#c05b59; stroke:none;"
     d="M14 48L15 49L14 48z"
     id="path78" />
  <path
     style="fill:#a09b98;stroke:none"
     d="m 135,46 1,1 z"
     id="path80" />
  <path
     style="fill:#c05b59; stroke:none;"
     d="M185 48L186 49L185 48z"
     id="path82" />
  <path
     style="fill:#a09b98;stroke:none"
     d="m 129,47 1,1 z"
     id="path84" />
  <path
     style="fill:#a09b98; stroke:none;"
     d="M12 51L13 52L12 51z"
     id="path88" />
  <path
     style="fill:#a09b98; stroke:none;"
     d="M187 51L188 52L187 51z"
     id="path92" />
  <path
     style="fill:#c05b59;stroke:none"
     d="m 115,50 1,1 z"
     id="path94" />
  <path
     style="fill:#a09b98;stroke:none"
     d="m 116,50 1,1 z"
     id="path96" />
  <path
     style="fill:#a09b98;stroke:none"
     d="m 121,50 1,1 z"
     id="path100" />
  <path
     style="fill:#c05b59;stroke:none"
     d="m 127,50 1,1 z"
     id="path102" />
  <path
     style="fill:#a09b98; stroke:none;"
     d="M133 52L134 53L133 52M11 53L12 54L11 53M130 53L131 54L130 53M132 53L133 54L132 53z"
     id="path104" />
  <path
     style="fill:#c05b59;stroke:none"
     d="m 133,51 1,1 z"
     id="path106" />
  <path
     style="fill:#a09b98;stroke:none"
     d="m 114,52 1,1 z"
     id="path112" />
  <path
     style="fill:#c05b59;stroke:none"
     d="m 115,52 1,1 -1,-1 m 5,0 1,1 z"
     id="path114" />
  <path
     style="fill:#c05b59;stroke:none"
     d="m 135,54 1,1 z"
     id="path122" />
  <path
     style="fill:#a09b98; stroke:none;"
     d="M9 57L10 58L9 57M97 57L98 58L97 57z"
     id="path124" />
  <path
     style="fill:#c05b59;stroke:none"
     d="m 116,55 1,1 -1,-1 m 4,0 1,1 z"
     id="path126" />
  <path
     style="fill:#c05b59;stroke:none"
     d="m 127,55 1,1 z"
     id="path130" />
  <path
     style="fill:#a09b98; stroke:none;"
     d="M95 58L96 59L95 58M120 58L121 59L120 58M131 58L132 59L131 58M137 58L138 59L137 58M8 59L9 60L8 59z"
     id="path136" />
  <path
     style="fill:#c05b59;stroke:none"
     d="m 87,57 1,1 z"
     id="path138" />
  <path
     style="fill:#a09b98; stroke:none;"
     d="M87 60L88 61L87 60M115 60L116 61L115 60M140 60L141 61L140 60M7 61L8 62L7 61z"
     id="path144" />
  <path
     style="fill:#c05b59;stroke:none"
     d="m 82,59 1,1 z"
     id="path146" />
  <path
     style="fill:#a09b98; stroke:none;"
     d="M192 61L193 62L192 61z"
     id="path152" />
  <path
     style="fill:#c05b59;stroke:none"
     d="m 80,60 1,1 z"
     id="path154" />
  <path
     style="fill:#a09b98;stroke:none"
     d="m 81,60 1,1 z"
     id="path156" />
  <path
     style="fill:#a09b98; stroke:none;"
     d="M81 63L82 64L81 63M136 63L137 64L136 63M138 63L139 64L138 63M142 63L143 64L142 63M6 64L7 65L6 64M78 64L79 65L78 64M113 64L114 65L113 64z"
     id="path164" />
  <path
     style="fill:#a09b98; stroke:none;"
     d="M193 64L194 65L193 64z"
     id="path168" />
  <path
     style="fill:#c05b59;stroke:none"
     d="m 74,63 1,1 z"
     id="path170" />
  <path
     style="fill:#a09b98;stroke:none"
     d="m 73,64 1,1 -1,-1 m 63,0 1,1 z"
     id="path176" />
  <path
     style="fill:#a09b98; stroke:none;"
     d="M5 67L6 68L5 67z"
     id="path180" />
  <path
     style="fill:#c05b59;stroke:none"
     d="m 72,65 1,1 z"
     id="path182" />
  <path
     style="fill:#a09b98; stroke:none;"
     d="M194 67L195 68L194 67M73 68L74 69L73 68z"
     id="path184" />
  <path
     style="fill:#c05b59;stroke:none"
     d="m 63,69 1,1 z"
     id="path190" />
  <path
     style="fill:#c05b59;stroke:none"
     d="m 61,71 1,1 z"
     id="path202" />
  <path
     style="fill:#a09b98; stroke:none;"
     d="M77 73L78 74L77 73M196 73L197 74L196 73z"
     id="path204" />
  <path
     style="fill:#c05b59; stroke:none;"
     d="M3 74L4 75L3 74M62 74L63 75L62 74z"
     id="path206" />
  <path
     style="fill:#c05b59; stroke:none;"
     d="M196 74L197 75L196 74M61 75L62 76L61 75M67 75L68 76L67 75z"
     id="path210" />
  <path
     style="fill:#a09b98;stroke:none"
     d="m 74,73 1,1 z"
     id="path212" />
  <path
     style="fill:#c05b59;stroke:none"
     d="m 75,73 1,1 -1,-1 m 3,0 1,1 -1,-1 m 52,0 1,1 z"
     id="path214" />
  <path
     style="fill:#a09b98; stroke:none;"
     d="M2 77L3 78L2 77z"
     id="path220" />
  <path
     style="fill:#a09b98; stroke:none;"
     d="M80 77L81 78L80 77M149 77L150 78L149 77M197 77L198 78L197 77z"
     id="path224" />
  <path
     style="fill:#c05b59; stroke:none;"
     d="M2 78L3 79L2 78M58 78L59 79L58 78M63 78L64 79L63 78z"
     id="path226" />
  <path
     style="fill:#c05b59; stroke:none;"
     d="M198 83L199 84L198 83z"
     id="path238" />
  <path
     style="fill:#a09b98; stroke:none;"
     d="M198 117L199 118L198 117z"
     id="path406" />
  <path
     style="fill:#c05b59; stroke:none;"
     d="M197 121L198 122L197 121z"
     id="path416" />
  <path
     style="fill:#c05b59; stroke:none;"
     d="M3 125L4 126L3 125z"
     id="path420" />
  <path
     style="fill:#c05b59; stroke:none;"
     d="M196 125L197 126L196 125z"
     id="path424" />
  <path
     style="fill:#a09b98; stroke:none;"
     d="M3 126L4 127L3 126M196 126L197 127L196 126z"
     id="path426" />
  <path
     style="fill:#a09b98; stroke:none;"
     d="M91 134L92 135L91 134M6 135L7 136L6 135M90 135L91 136L90 135M127 135L128 136L127 135z"
     id="path438" />
  <path
     style="fill:#a09b98; stroke:none;"
     d="M193 135L194 136L193 135z"
     id="path442" />
  <path
     style="fill:#c05b59; stroke:none;"
     d="M192 137L193 138L192 137z"
     id="path458" />
  <path
     style="fill:#a09b98; stroke:none;"
     d="M7 138L8 139L7 138z"
     id="path460" />
  <path
     style="fill:#a09b98; stroke:none;"
     d="M82 138L83 139L82 138M137 138L138 139L137 138M192 138L193 139L192 138z"
     id="path464" />
  <path
     style="fill:#a09b98; stroke:none;"
     d="M80 139L81 140L80 139M138 139L139 140L138 139M8 140L9 141L8 140z"
     id="path472" />
  <path
     style="fill:#a09b98; stroke:none;"
     d="M68 140L69 141L68 140M78 140L79 141L78 140M139 140L140 141L139 140M191 140L192 141L191 140M77 141L78 142L77 141z"
     id="path476" />
  <path
     style="fill:#a09b98; stroke:none;"
     d="M9 142L10 143L9 142z"
     id="path480" />
  <path
     style="fill:#a09b98; stroke:none;"
     d="M190 142L191 143L190 142z"
     id="path488" />
  <path
     style="fill:#a09b98; stroke:none;"
     d="M115 148L116 149L115 148M125 148L126 149L125 148M187 148L188 149L187 148z"
     id="path508" />
  <path
     style="fill:#c05b59; stroke:none;"
     d="M185 151L186 152L185 151z"
     id="path518" />
  <path
     style="fill:#a09b98; stroke:none;"
     d="M182 156L183 157L182 156M54 157L55 158L54 157M125 157L126 158L125 157M136 157L137 158L136 157M55 158L56 159L55 158M66 158L67 159L66 158M69 158L70 159L69 158M76 158L77 159L76 158M97 158L98 159L97 158z"
     id="path536" />
  <path
     style="fill:#a09b98; stroke:none;"
     d="M179 160L180 161L179 160z"
     id="path552" />
  <path
     style="fill:#a09b98; stroke:none;"
     d="M176 164L177 165L176 164M24 165L25 166L24 165M175 165L176 166L175 165M25 166L26 167L25 166M174 166L175 167L174 166z"
     id="path568" />
  <path
     style="fill:#c05b59; stroke:none;"
     d="M26 167L27 168L26 167M173 167L174 168L173 167M32 173L33 174L32 173M33 174L34 175L33 174M166 174L167 175L166 174z"
     id="path570" />
  <path
     style="fill:#a09b98; stroke:none;"
     d="M34 175L35 176L34 175M165 175L166 176L165 175M35 176L36 177L35 176M164 176L165 177L164 176M163 177L164 178L163 177M39 179L40 180L39 179M160 179L161 180L160 179M40 180L41 181L40 180M159 180L160 181L159 180M43 182L44 183L43 182M156 182L157 183L156 182M44 183L45 184L44 183M155 183L156 184L155 183M46 184L47 185L46 184M153 184L154 185L153 184M49 186L50 187L49 186M150 186L151 187L150 186M51 187L52 188L51 187M148 187L149 188L148 187z"
     id="path572" />
  <path
     style="fill:#c05b59; stroke:none;"
     d="M53 188L54 189L53 188M146 188L147 189L146 188z"
     id="path574" />
  <path
     style="fill:#a09b98; stroke:none;"
     d="M55 189L56 190L55 189M144 189L145 190L144 189M57 190L58 191L57 190M142 190L143 191L142 190M59 191L60 192L59 191M140 191L141 192L140 191M61 192L62 193L61 192M138 192L139 193L138 192M64 193L65 194L64 193M135 193L136 194L135 193z"
     id="path576" />
  <path
     style="fill:#c05b59; stroke:none;"
     d="M67 194L68 195L67 194M132 194L133 195L132 194z"
     id="path578" />
  <path
     style="fill:#a09b98; stroke:none;"
     d="M69 195L70 196L69 195z"
     id="path580" />
  <path
     style="fill:#c05b59; stroke:none;"
     d="M70 195L71 196L70 195M129 195L130 196L129 195z"
     id="path582" />
  <path
     style="fill:#a09b98; stroke:none;"
     d="M130 195L131 196L130 195M73 196L74 197L73 196M126 196L127 197L126 196M77 197L78 198L77 197z"
     id="path584" />
  <path
     style="fill:#c05b59; stroke:none;"
     d="M78 197L79 198L78 197M121 197L122 198L121 197z"
     id="path586" />
  <path
     style="fill:#c05b59; stroke:none;"
     d="M84 198L85 199L84 198M115 198L116 199L115 198z"
     id="path590" />
  <path
     style="fill:#100c0c;stroke:none;stroke-width:0.210489"
     d="m 52.374399,93.72171 -0.131976,0.351728 -0.0219,0.102717 -0.05852,0.210705 c -0.07136,0.337201 -0.138507,0.675459 -0.172602,1.018767 -0.03493,0.349623 -0.03559,0.701565 -0.03559,1.052452 0,0.422454 0.0059,0.843428 0.06041,1.262936 0.04588,0.353415 0.122508,0.703045 0.191755,1.052445 l 0.336785,1.68393 c 0.06925,0.3494 0.14587,0.69903 0.191761,1.05244 0.02718,0.20965 0.04588,0.42014 0.05259,0.63147 0.01512,0.49086 -0.0065,0.9832 0.02718,1.47343 0.02418,0.35383 0.08399,0.70177 0.134505,1.05245 0.0507,0.35131 0.08714,0.70556 0.165233,1.05245 0.06438,0.28564 0.152184,0.566 0.249434,0.84196 0.10082,0.28563 0.213221,0.56769 0.341835,0.84196 0.134713,0.2871 0.286683,0.56306 0.451498,0.83375 l 0.278056,0.39256 0.324156,0.35973 c 0.423086,0.42098 0.932889,0.73629 1.403965,1.09749 l 0.418035,0.33173 0.205225,0.18082 0.390671,0.39066 c 0.181862,0.19723 0.351942,0.40667 0.510227,0.62326 l 0.740927,1.05203 c 0.158284,0.21681 0.328573,0.42603 0.510227,0.62348 0.427921,0.46476 0.919419,0.86385 1.434697,1.22715 0.667888,0.47086 1.381443,0.8748 2.104898,1.25326 l 0.631472,0.32584 c 0.275527,0.1427 0.549165,0.29384 0.841955,0.39909 l 0.42098,0.12123 0.631472,0.10567 c 0.349831,0.0546 0.699036,0.11114 1.052445,0.13534 0.210074,0.0145 0.420981,0.0162 0.631471,0.0181 l 0.841962,6.5e-4 h 3.367834 1.052451 l 0.631472,6.6e-4 c 0.280578,0.004 0.56285,0.004 0.841955,0.0349 0.282272,0.0316 0.561801,0.0764 0.841962,0.12313 l 0.631471,0.11157 0.420981,0.0962 c 0.279737,0.0708 0.557375,0.14776 0.841955,0.19723 0.34815,0.0604 0.702197,0.0815 1.052452,0.12692 l 0.631465,0.0903 c 0.21049,0.024 0.419508,0.0393 0.631471,0.0337 0.282689,-0.007 0.564538,-0.0497 0.841961,-0.10252 0.282267,-0.0534 0.563059,-0.11198 0.841955,-0.18081 l 0.631472,-0.16481 0.420981,-0.0962 0.631471,-0.11155 0.420981,-0.069 0.420974,-0.0573 0.841962,-0.092 0.631471,-0.0941 0.841955,-0.11408 c 0.280793,-0.0393 0.559696,-0.0895 0.841962,-0.11788 l 1.052452,-0.0711 c 0.211539,-0.021 0.42119,-0.0549 0.631464,-0.0857 l 0.420982,-0.0543 0.84196,-0.0708 0.42098,-0.0619 0.41993,-0.0884 0.59884,-0.13703 0.31342,-0.0585 0.35173,-0.0393 c -0.10946,0.56411 -0.21849,1.12801 -0.36521,1.68392 l -0.17765,0.63147 -0.17723,0.63147 c -0.0785,0.27931 -0.16544,0.55759 -0.22396,0.84196 l -0.0703,0.42097 -0.0733,0.84196 c -0.0282,0.2829 -0.0796,0.56327 -0.13492,0.84197 -0.0419,0.21153 -0.0878,0.42245 -0.1404,0.63146 -0.0703,0.28059 -0.15429,0.55864 -0.2128,0.84196 -0.0433,0.20922 -0.0722,0.41846 -0.0884,0.63147 -0.0318,0.4214 -0.009,0.84407 0.0402,1.26294 l 0.0613,0.42098 c 0.0377,0.27995 0.0739,0.55885 0.0726,0.84196 -0.001,0.21028 -0.0139,0.42435 -0.052,0.63147 l -0.0398,0.21048 -0.0493,0.2105 -0.23385,0.84195 c -0.0998,0.35257 -0.2006,0.7041 -0.3149,1.05246 -0.0701,0.21385 -0.15239,0.42203 -0.23407,0.63147 l -0.19975,0.42077 -0.12166,0.20985 -0.13766,0.20817 -0.329418,0.40204 c -0.291741,0.31132 -0.630416,0.57148 -1.007617,0.77103 -0.332784,0.17597 -0.694827,0.27911 -1.052238,0.39046 l -0.42098,0.1286 -0.841955,0.26438 c -0.420981,0.1265 -0.846804,0.23596 -1.262943,0.37868 -0.28353,0.097 -0.562009,0.20859 -0.841955,0.3151 l -0.42098,0.15639 -0.631472,0.23259 c -0.495702,0.19071 -0.990354,0.38604 -1.473426,0.60727 -0.355097,0.1625 -0.703247,0.33994 -1.052452,0.51443 -0.35236,0.17618 -0.707248,0.34878 -1.052446,0.53864 -0.434451,0.2387 -0.857752,0.49971 -1.262942,0.78534 -0.215965,0.15219 -0.426455,0.31068 -0.631472,0.4774 -0.286475,0.2328 -0.561586,0.47949 -0.841955,0.71945 l -0.631262,0.53801 -0.209859,0.18628 -0.413402,0.3934 -0.390456,0.41363 c -0.175972,0.2048 -0.347309,0.41045 -0.504336,0.63062 -0.189651,0.26626 -0.363725,0.54832 -0.508331,0.84196 -0.203753,0.41403 -0.374465,0.84258 -0.564115,1.26293 l -0.291526,0.63148 -0.180181,0.42097 c -0.08167,0.20903 -0.158077,0.41888 -0.230066,0.63148 -0.07009,0.20627 -0.131762,0.41823 -0.17723,0.63146 -0.04464,0.20881 -0.07325,0.41867 -0.08946,0.63147 -0.01577,0.21029 -0.01538,0.42077 -0.0187,0.63148 l -6.52e-4,0.84195 v 3.15735 l -0.454451,-0.009 -0.210698,-0.013 -0.391721,-0.0608 -0.203759,-0.0546 -0.203961,-0.075 -0.384773,-0.21049 -0.329421,-0.29152 -0.259321,-0.36016 -0.199757,-0.40203 c -0.08483,-0.20733 -0.162286,-0.41614 -0.234061,-0.62831 -0.09388,-0.27701 -0.181022,-0.55843 -0.252589,-0.84196 -0.05305,-0.20986 -0.102931,-0.41909 -0.145453,-0.63147 l -0.06126,-0.42097 c -0.04503,-0.41868 -0.03663,-0.8426 -0.03663,-1.26295 l 0.0032,-0.63147 c 0.0053,-0.21028 0.0099,-0.42308 0.04171,-0.63147 l 0.08925,-0.42097 0.150713,-0.42099 0.19386,-0.42098 0.107558,-0.21049 0.229858,-0.42097 c 0.124821,-0.21513 0.254902,-0.42856 0.3993,-0.63148 0.255534,-0.35951 0.529804,-0.70408 0.800281,-1.05245 0.214909,-0.27699 0.42708,-0.55632 0.630415,-0.84196 0.283739,-0.39888 0.573375,-0.8066 0.757766,-1.26293 0.136187,-0.33679 0.198493,-0.69567 0.256798,-1.05245 0.04568,-0.27848 0.0682,-0.56012 0.04608,-0.84196 l -0.06419,-0.42098 c -0.05096,-0.21344 -0.104404,-0.42582 -0.182703,-0.63147 -0.142293,-0.37362 -0.333631,-0.72619 -0.595896,-1.02972 -0.165239,-0.19112 -0.350471,-0.36162 -0.557592,-0.50623 -0.193651,-0.13534 -0.403718,-0.24017 -0.622627,-0.32752 -0.337418,-0.13429 -0.696509,-0.19427 -1.052238,-0.25742 l -0.420981,-0.0703 c -0.210066,-0.033 -0.419716,-0.068 -0.63147,-0.0884 -0.419509,-0.0406 -0.841962,-0.0358 -1.262937,-0.0358 -0.421189,0 -0.843226,-0.004 -1.262943,0.0358 -0.211747,0.0202 -0.421397,0.0547 -0.63147,0.0861 l -0.420975,0.0612 -0.42098,0.0556 c -0.211964,0.0327 -0.422246,0.0667 -0.631472,0.11472 -0.213013,0.0488 -0.422238,0.1105 -0.631471,0.17387 -0.210276,0.0635 -0.418244,0.13618 -0.631465,0.18964 l -0.420981,0.0895 -0.631471,0.10399 c -0.216173,0.0423 -0.427504,0.10608 -0.631472,0.18943 -0.219535,0.0895 -0.427503,0.20334 -0.631464,0.32331 -0.287531,0.16903 -0.564114,0.35721 -0.841962,0.5416 l -0.631471,0.42392 c -0.213644,0.14713 -0.427712,0.2949 -0.630624,0.45677 l -0.413401,0.35067 -0.199335,0.19133 -0.372151,0.40457 c -0.288157,0.33468 -0.536535,0.70135 -0.808068,1.04929 -0.229852,0.29448 -0.481391,0.57148 -0.742183,0.8388 -0.201231,0.20628 -0.410881,0.40309 -0.623052,0.598 l -0.417821,0.35994 -0.598848,0.49423 -0.36667,0.33257 c -0.310686,0.29932 -0.600739,0.62242 -0.871848,0.95795 -0.26901,0.33278 -0.522439,0.68114 -0.741134,1.04929 -0.159341,0.26795 -0.307108,0.54706 -0.410665,0.84195 -0.07304,0.20839 -0.137034,0.41762 -0.192602,0.63148 -0.0724,0.27848 -0.129664,0.56053 -0.188601,0.84195 l -0.169018,0.84196 -0.25238,1.26294 c -0.05474,0.27974 -0.1124,0.55927 -0.149872,0.84196 -0.02756,0.20986 -0.04483,0.41992 -0.05174,0.63148 -0.0091,0.27952 -0.0039,0.56368 0.02672,0.84194 0.03917,0.35279 0.09724,0.70305 0.158708,1.05246 0.03701,0.21112 0.07093,0.42309 0.121244,0.63147 0.08545,0.35341 0.186073,0.70303 0.286267,1.05245 l 0.187122,0.63146 c 0.09598,0.2888 0.207335,0.5717 0.348149,0.84197 0.113874,0.21869 0.244377,0.42792 0.383301,0.63146 0.199549,0.29259 0.417827,0.57274 0.647679,0.84196 0.37236,0.43614 0.778391,0.8386 1.199795,1.22695 0.20312,0.18734 0.417612,0.36268 0.631256,0.5378 0.342044,0.28037 0.689986,0.55569 1.052452,0.80934 0.340362,0.23827 0.695877,0.45381 1.052446,0.66662 0.743448,0.44329 1.504583,0.85796 2.315388,1.16568 0.276583,0.10504 0.558008,0.20019 0.841961,0.28312 l 0.631472,0.17302 0.420974,0.0916 0.420981,0.061 0.21049,0.0174 c 0.2107,0.0101 0.420558,0.0168 0.631472,0.0101 0.497598,-0.016 0.987616,-0.0994 1.473426,-0.2046 0.724719,-0.15682 1.438275,-0.3793 2.104897,-0.70683 0.215124,-0.10588 0.423086,-0.225 0.631472,-0.34331 l 0.841961,-0.47591 c 0.208386,-0.11219 0.416348,-0.22081 0.631465,-0.31931 l 0.420981,-0.14293 0.420981,-0.0467 0.42098,0.0452 0.210492,0.0461 0.841955,0.21344 c 0.209441,0.0483 0.420139,0.0918 0.63147,0.13029 0.209441,0.0383 0.419509,0.0726 0.631472,0.0937 0.348782,0.0349 0.702191,0.0402 1.052445,0.0328 0.281849,-0.006 0.563482,-0.018 0.841962,-0.0661 0.215749,-0.0373 0.423502,-0.0958 0.631471,-0.16291 l 0.631471,-0.23617 0.210484,-0.0724 0.210491,-0.0531 0.420981,-0.0189 c 0.302265,0.0341 0.580744,0.17914 0.841961,0.32521 l 1.052445,0.61611 c 0.207337,0.11492 0.415723,0.22564 0.631472,0.32393 0.273638,0.12441 0.556112,0.23113 0.841962,0.32416 0.207753,0.0678 0.417611,0.13114 0.631465,0.17724 0.209017,0.045 0.418667,0.0722 0.631471,0.0895 0.209649,0.0168 0.421189,0.0168 0.631471,0.0187 l 0.841962,6.5e-4 h 2.315387 l 0.631465,2.2e-4 0.631472,0.008 c 0.211754,0.009 0.421189,0.0258 0.631471,0.052 l 0.631464,0.0909 1.052453,0.11872 0.631471,0.0909 0.420981,0.0414 c 0.279945,0.0189 0.561586,0.0194 0.841955,0.0177 0.281215,-8.8e-4 0.561805,-0.009 0.841965,-0.0348 0.42161,-0.0393 0.83712,-0.13555 1.26293,-0.11935 0.28585,0.0109 0.56244,0.073 0.84196,0.12778 0.20923,0.0411 0.41804,0.0892 0.63148,0.10376 l 0.42097,-2.1e-4 0.42098,-0.0631 c 0.28522,-0.0573 0.56138,-0.14819 0.84196,-0.2225 l 0.42077,-0.10966 0.20986,-0.0381 0.41361,-0.006 0.19975,0.0463 0.37994,0.21049 0.18123,0.15702 0.35973,0.37784 0.18628,0.20459 c 0.19534,0.20775 0.39046,0.41551 0.59885,0.61064 l 0.41803,0.36919 0.21028,0.16461 0.42098,0.27995 0.42098,0.21049 0.42098,0.14102 c 0.41067,0.10778 0.84111,0.11578 1.26293,0.11578 0.21092,2.1e-4 0.42099,-0.006 0.63147,-0.0173 l 0.2105,-0.0177 0.42098,-0.0619 c 0.2128,-0.0447 0.42434,-0.0918 0.63146,-0.15934 l 0.42014,-0.15681 0.20818,-0.0994 0.40519,-0.25469 c 0.34478,-0.25512 0.62389,-0.58432 0.92089,-0.89037 l 0.18629,-0.17744 c 0.2349,-0.21702 0.50896,-0.38604 0.80701,-0.50139 0.33595,-0.12966 0.69546,-0.16144 1.05161,-0.17955 l 0.42098,-0.008 0.63146,-6.5e-4 h 2.73638 l 1.05245,-6.5e-4 c 0.21007,-8.8e-4 0.42224,-6.4e-4 0.63147,-0.0213 l 0.21048,-0.0228 0.42099,-0.0892 c 0.29278,-0.0838 0.56579,-0.21576 0.84196,-0.3412 l 0.21049,-0.10167 0.42097,-0.18692 0.21028,-0.0729 0.41804,-0.0667 0.20522,0.0228 0.19934,0.0667 0.19134,0.10819 0.35151,0.3168 0.31869,0.39298 c 0.1606,0.20965 0.31552,0.42455 0.48939,0.62368 l 0.37214,0.39677 0.19933,0.17997 0.4134,0.30206 0.20986,0.1187 0.21029,0.1 0.42098,0.15617 0.21048,0.0594 0.42098,0.0735 0.21049,0.007 0.42098,-0.0592 c 0.21975,-0.0539 0.42772,-0.14566 0.63147,-0.24164 0.293,-0.13787 0.56916,-0.30627 0.84196,-0.47971 l 0.21049,-0.14397 0.21049,-0.15576 0.42098,-0.34542 0.42098,-0.37068 0.42098,-0.34498 0.42098,-0.26333 0.42097,-0.15681 c 0.34142,-0.0935 0.7022,-0.0823 1.05246,-0.0914 l 0.42098,-0.008 c 0.21174,-0.011 0.42098,-0.0261 0.63147,-0.052 l 0.63146,-0.0985 c 0.35195,-0.0583 0.70325,-0.11702 1.05245,-0.19091 l 0.84196,-0.18417 c 0.20965,-0.0377 0.4193,-0.0632 0.63147,-0.0787 0.34984,-0.0255 0.70199,-0.0183 1.05245,-0.0189 h 1.68392 c 0.35047,-6.4e-4 0.70262,0.006 1.05245,-0.0188 l 0.42098,-0.0421 0.42098,-0.0696 0.42098,-0.0916 c 0.21618,-0.057 0.42582,-0.12292 0.63147,-0.21132 0.29131,-0.12546 0.56559,-0.28669 0.84196,-0.44098 0.28269,-0.15808 0.56684,-0.31532 0.84196,-0.48623 0.21617,-0.13408 0.42561,-0.2768 0.63147,-0.42646 0.21512,-0.15639 0.42393,-0.32183 0.63146,-0.48791 0.28648,-0.22923 0.56707,-0.46476 0.84197,-0.70788 0.29089,-0.25701 0.56684,-0.53232 0.84112,-0.8068 0.27448,-0.27449 0.54347,-0.55339 0.80385,-0.84112 l 0.18019,-0.2105 c 0.22374,-0.26248 0.42119,-0.54874 0.60221,-0.84195 0.24753,-0.4012 0.45613,-0.82681 0.63441,-1.26294 0.16902,-0.41319 0.30521,-0.83965 0.44645,-1.26294 0.13955,-0.41887 0.28101,-0.83775 0.40098,-1.26294 0.11745,-0.41677 0.21386,-0.83859 0.29974,-1.26294 0.0708,-0.34835 0.13998,-0.6984 0.17533,-1.05245 0.0351,-0.34984 0.0337,-0.70135 0.0358,-1.05244 l 2.1e-4,-0.84197 -6.5e-4,-1.26293 c -0.003,-0.21049 -0.003,-0.4214 -0.0188,-0.63148 -0.0165,-0.213 -0.0447,-0.42287 -0.0918,-0.63147 -0.0817,-0.36204 -0.21954,-0.70703 -0.35258,-1.05244 -0.10945,-0.28332 -0.22628,-0.56433 -0.34899,-0.84196 -0.18902,-0.4275 -0.39636,-0.84701 -0.60936,-1.26294 -0.18482,-0.36078 -0.36942,-0.72219 -0.60622,-1.05245 -0.26985,-0.37614 -0.58748,-0.71419 -0.92152,-1.03351 -0.45593,-0.43529 -0.95457,-0.82722 -1.47027,-1.18927 -0.2728,-0.19154 -0.55149,-0.37593 -0.84197,-0.53969 -0.4134,-0.23322 -0.83711,-0.44687 -1.26294,-0.65673 l -0.63147,-0.30395 -0.42098,-0.1808 c -0.2069,-0.0861 -0.4195,-0.1583 -0.63146,-0.23007 -0.27406,-0.093 -0.55633,-0.17007 -0.84196,-0.21765 -0.34878,-0.0583 -0.69988,-0.0621 -1.05245,-0.0678 l -0.84196,-0.002 c -0.27995,-0.002 -0.56453,-8.7e-4 -0.84196,-0.044 l -0.42098,-0.0894 -0.21049,-0.0699 -0.42077,-0.18313 -0.41803,-0.23785 -0.20459,-0.1406 -0.3852,-0.33153 -0.33174,-0.38519 c -0.14797,-0.19492 -0.26964,-0.40878 -0.38751,-0.62264 -0.11388,-0.20691 -0.21995,-0.41886 -0.32352,-0.63126 -0.16776,-0.34414 -0.32668,-0.69209 -0.45655,-1.05244 -0.12419,-0.34499 -0.21849,-0.69987 -0.31805,-1.05245 -0.0979,-0.34795 -0.20565,-0.69504 -0.26395,-1.05244 -0.0343,-0.20945 -0.0503,-0.41951 -0.0602,-0.63148 l -0.0272,-0.84196 -0.0411,-0.42098 -0.0911,-0.63147 -0.092,-0.84195 c -0.0343,-0.28186 -0.0786,-0.56223 -0.12692,-0.84197 -0.0488,-0.2829 -0.0998,-0.56495 -0.17598,-0.84196 -0.0981,-0.35572 -0.23723,-0.6984 -0.3412,-1.05245 -0.0609,-0.20648 -0.0989,-0.41824 -0.12651,-0.63146 l -0.0334,-0.42098 -0.0409,-0.63147 c -0.0282,-0.28185 -0.0766,-0.56138 -0.11493,-0.84196 l -0.0411,-0.42098 c -0.0297,-0.42056 -0.0126,-0.84302 -0.0549,-1.26294 -0.0711,-0.70873 -0.27699,-1.39618 -0.34898,-2.1049 -0.0356,-0.34983 -0.0328,-0.70177 -0.0549,-1.05245 -0.0133,-0.21197 -0.0411,-0.42245 -0.0789,-0.63147 -0.0383,-0.21238 -0.0894,-0.42329 -0.14629,-0.63147 -0.0781,-0.28669 -0.16944,-0.56895 -0.28731,-0.84196 -0.12545,-0.29048 -0.28016,-0.56621 -0.43467,-0.84195 l -0.59358,-1.05245 c -0.11619,-0.20923 -0.23448,-0.41699 -0.34098,-0.63148 -0.13619,-0.27405 -0.25554,-0.55506 -0.36184,-0.84196 l -0.12566,-0.42097 -0.0349,-0.2105 -0.0106,-0.21048 0.073,-0.42098 0.19913,-0.42099 0.29552,-0.42097 0.33342,-0.42098 0.16481,-0.21049 0.31553,-0.42077 c 0.2128,-0.28311 0.42434,-0.56643 0.66998,-0.82259 l 0.39068,-0.37131 0.20522,-0.16755 0.20817,-0.15365 0.42014,-0.26207 0.21049,-0.10692 0.42098,-0.16861 c 0.47844,-0.16565 0.98489,-0.22312 1.47343,-0.35046 l 0.84196,-0.24901 0.63147,-0.16882 0.83375,-0.25216 0.57969,-0.16966 c 0.31278,-0.10461 0.61547,-0.23869 0.92068,-0.3633 l 0.61358,-0.25322 0.42013,-0.1985 0.2105,-0.11008 0.42014,-0.24544 c 0.29131,-0.19175 0.56558,-0.40835 0.80702,-0.66072 0.37655,-0.39361 0.71503,-0.8207 1.07138,-1.23241 0.16945,-0.19576 0.34205,-0.391094 0.52792,-0.571275 0.29236,-0.283739 0.61189,-0.538432 0.96551,-0.742191 0.20144,-0.115978 0.40982,-0.211747 0.62831,-0.291317 0.27596,-0.100612 0.5639,-0.16544 0.84197,-0.259529 0.28521,-0.09662 0.562,-0.213443 0.84195,-0.323946 0.28058,-0.110505 0.56664,-0.210068 0.84196,-0.333624 0.21576,-0.09662 0.42793,-0.200598 0.63147,-0.321419 0.43024,-0.254908 0.84238,-0.537807 1.26294,-0.808283 l 0.63146,-0.396772 c 0.21156,-0.131344 0.42583,-0.259535 0.63148,-0.399931 0.21723,-0.148399 0.42877,-0.302474 0.63125,-0.470658 0.21744,-0.18039 0.42078,-0.374041 0.62327,-0.570638 l 0.39046,-0.413401 0.18017,-0.209859 0.32415,-0.420765 c 0.14861,-0.199967 0.27723,-0.416563 0.40247,-0.631472 0.23743,-0.407087 0.44266,-0.833118 0.63483,-1.262942 l 0.45908,-1.052446 c 0.0996,-0.215124 0.21112,-0.424982 0.32752,-0.631471 0.20313,-0.360779 0.43004,-0.707248 0.65841,-1.052446 0.28227,-0.427086 0.57233,-0.848699 0.87311,-1.262942 l 0.77482,-1.052446 c 0.1465,-0.204599 0.28753,-0.413825 0.41425,-0.631471 0.269,-0.462238 0.47612,-0.961309 0.62915,-1.473426 0.10293,-0.344364 0.17934,-0.695042 0.21807,-1.052452 0.0457,-0.418668 0.036,-0.842594 0.0366,-1.262936 v -1.47359 l -6.5e-4,-1.262937 -0.008,-0.42098 -0.0357,-0.420981 -0.0892,-0.420981 c -0.0619,-0.217646 -0.15092,-0.426032 -0.24459,-0.631465 -0.13135,-0.287531 -0.28353,-0.563906 -0.43319,-0.841961 l -0.33889,-0.631472 -0.16734,-0.420981 -0.0724,-0.420974 -6.5e-4,-0.21049 0.0341,-0.420981 0.0229,-0.420981 c -0.002,-0.282266 -0.0404,-0.564323 -0.089,-0.841961 -0.0495,-0.282899 -0.0964,-0.566846 -0.18123,-0.841956 -0.0905,-0.292373 -0.2168,-0.571269 -0.35889,-0.841961 -0.15282,-0.291318 -0.32752,-0.571694 -0.51485,-0.841962 -0.20082,-0.289421 -0.41994,-0.565373 -0.63779,-0.841955 -0.44224,-0.56117 -0.89921,-1.110966 -1.32609,-1.683924 -0.15471,-0.207753 -0.30479,-0.418237 -0.4517,-0.631464 l -0.26839,-0.420981 c -0.12418,-0.202495 -0.23195,-0.415931 -0.3313,-0.631472 -0.12609,-0.273637 -0.22922,-0.557376 -0.32752,-0.841955 l -0.28422,-0.841962 c -0.0975,-0.28248 -0.19133,-0.566851 -0.30836,-0.841961 -0.092,-0.216805 -0.19513,-0.427504 -0.313,-0.631464 -0.1265,-0.218911 -0.26963,-0.425191 -0.4153,-0.631472 l -0.32414,-0.420981 -0.3591,-0.42098 -0.19281,-0.210491 -0.81481,-0.841956 c -0.19723,-0.207121 -0.39024,-0.416562 -0.57947,-0.63063 -0.1806,-0.204175 -0.35363,-0.414874 -0.54139,-0.612735 -0.18249,-0.192179 -0.37298,-0.3732 -0.57947,-0.539697 -0.57443,-0.462655 -1.2459,-0.777126 -1.88621,-1.134328 -0.48854,-0.272627 -0.96509,-0.567672 -1.47342,-0.803207 l -0.42099,-0.180936 -0.42097,-0.150563 -0.42098,-0.124255 c -0.20712,-0.05871 -0.4195,-0.107858 -0.63147,-0.146163 -0.20691,-0.03741 -0.41614,-0.0665 -0.62621,-0.07877 -0.35256,-0.02059 -0.70472,-0.01805 -1.05771,-0.01903 l 0.15429,-0.351786 0.17618,-0.313461 c 0.12987,-0.204704 0.26459,-0.40465 0.41003,-0.59866 0.21639,-0.2886 0.4515,-0.562531 0.68052,-0.840991 l 0.51486,-0.628395 c 0.21975,-0.266861 0.43887,-0.53578 0.68241,-0.781695 0.29362,-0.296387 0.61463,-0.560198 0.9632,-0.789821 0.39297,-0.259047 0.81669,-0.472509 1.25978,-0.631471 0.34246,-0.122841 0.69756,-0.204723 1.05245,-0.281465 0.34878,-0.07542 0.69966,-0.141322 1.05244,-0.194896 l 0.84196,-0.09274 1.05245,-0.142124 c 0.20965,-0.02301 0.42098,-0.0275 0.63147,-0.03265 l 0.42098,-0.0026 1.05245,-3.39e-4 c 0.35088,-0.0019 0.70303,0.0013 1.05245,-0.03636 0.35678,-0.03818 0.70408,-0.118487 1.05245,-0.2014 l 1.47343,-0.366083 0.63147,-0.140163 0.42098,-0.05813 c 0.20859,-0.02288 0.42266,-0.01714 0.63146,0 0.357,0.02939 0.70494,0.116721 1.05246,0.198305 l 0.84195,0.209668 c 0.41993,0.104783 0.83923,0.211058 1.26295,0.299822 0.27868,0.05839 0.56116,0.100449 0.84196,0.146354 0.28016,0.04581 0.55969,0.09083 0.84195,0.122944 l 0.42098,0.02744 0.42098,0.0075 h 0.63147 c 0.2808,-0.0032 0.56264,-0.0046 0.84196,-0.03818 0.21407,-0.02587 0.42414,-0.06805 0.63147,-0.127011 0.36393,-0.103433 0.7163,-0.255195 1.05245,-0.427797 0.28943,-0.148589 0.56937,-0.315019 0.83354,-0.505112 0.26669,-0.191951 0.51823,-0.404187 0.73903,-0.648356 0.21407,-0.236818 0.40203,-0.502877 0.55759,-0.781695 l 0.11618,-0.208216 0.20313,-0.42018 0.15576,-0.42098 c 0.0644,-0.206971 0.10335,-0.419189 0.14482,-0.631465 l 0.0724,-0.42098 c 0.0337,-0.209253 0.0724,-0.419887 0.0884,-0.631472 l 0.0246,-0.420981 c 0,-0.211311 -0.004,-0.421 -0.0253,-0.631464 -0.0448,-0.429975 -0.14545,-0.855459 -0.28922,-1.262943 -0.12797,-0.36278 -0.29342,-0.711666 -0.47107,-1.052445 -0.18881,-0.362865 -0.39278,-0.719813 -0.6321,-1.052283 -0.31763,-0.441483 -0.68473,-0.842274 -1.10002,-1.193924 -0.26206,-0.22194 -0.54412,-0.425693 -0.83881,-0.602231 l -0.42097,-0.243132 -0.63148,-0.32759 c -0.48391,-0.245609 -0.96973,-0.491902 -1.47342,-0.695303 -0.34437,-0.139041 -0.69693,-0.257775 -1.05245,-0.364448 -0.34689,-0.104079 -0.69757,-0.195085 -1.05245,-0.267674 l -1.05245,-0.184014 -0.84196,-0.162409 c -0.27932,-0.05318 -0.55885,-0.105031 -0.84196,-0.133346 -0.48876,-0.04887 -0.98299,-0.03591 -1.47343,-0.03591 -0.49066,0 -0.98425,-0.0116 -1.47343,0.03572 -0.28227,0.02731 -0.56222,0.07655 -0.84196,0.122952 -0.28079,0.04659 -0.56327,0.08795 -0.84195,0.146346 -0.35299,0.07395 -0.70241,0.160931 -1.05246,0.247831 l -0.84195,0.211149 -0.63148,0.167284 -0.84195,0.242963 c -0.35236,0.10097 -0.70577,0.196427 -1.05245,0.315749 -0.21259,0.07314 -0.42266,0.153717 -0.63147,0.236962 -0.35384,0.141074 -0.70493,0.28669 -1.05245,0.442916 l -0.63147,0.304682 -1.26294,0.630821 c -0.49949,0.250542 -1.00361,0.494437 -1.47343,0.798762 -0.44666,0.289277 -0.86595,0.619832 -1.26294,0.973665 -0.43803,0.390352 -0.84827,0.81173 -1.26293,1.226396 -0.54559,0.545529 -1.09645,1.086698 -1.58604,1.683917 -0.55317,0.67441 -1.02214,1.411634 -1.55005,2.104904 -0.21954,0.288346 -0.44751,0.569035 -0.68599,0.841955 -0.24417,0.279255 -0.4997,0.548852 -0.72725,0.841962 -0.15702,0.201901 -0.29721,0.412099 -0.42834,0.631471 l -0.11703,0.210484 -0.43003,0.841962 -0.52749,1.052451 -0.42182,0.841956 c -0.14461,0.281197 -0.2829,0.569608 -0.46498,0.829456 -0.17534,0.25034 -0.37972,0.484845 -0.66072,0.619285 l -0.40204,0.108171 -0.20817,0.0065 -0.42014,-0.0348 -0.21048,-0.02352 -0.84197,-0.09015 c -0.28037,-0.03324 -0.55864,-0.08098 -0.84195,-0.08055 -0.28312,4.37e-4 -0.56307,0.04411 -0.84197,0.08802 l -0.63147,0.102827 -0.42098,0.06853 c -0.20922,0.02985 -0.41993,0.0623 -0.63146,0.07048 l -0.42098,0.0082 -0.21049,-0.0082 -0.42098,-0.04125 -0.42098,-0.06853 -0.63147,-0.125388 c -0.42351,-0.08948 -0.84302,-0.193547 -1.26294,-0.29801 l -1.26294,-0.315736 -0.63147,-0.156414 c -0.27868,-0.06719 -0.5578,-0.134167 -0.84196,-0.174746 -0.41908,-0.05989 -0.84048,-0.06112 -1.26293,-0.06288 -0.28038,-0.0013 -0.56223,-0.0013 -0.84197,0.01851 -0.56874,0.03989 -1.12612,0.164202 -1.68392,0.275782 -0.49234,0.09845 -0.98636,0.192413 -1.47343,0.314771 -0.42624,0.107076 -0.84512,0.23777 -1.26293,0.373702 l -0.63147,0.215032 c -0.49634,0.176669 -0.98363,0.376335 -1.47344,0.569758 -0.34646,0.136793 -0.69271,0.283068 -1.05245,0.382161 -0.20649,0.05689 -0.41781,0.105141 -0.63146,0.12636 l -0.42098,0.03057 -0.84197,0.0086 -0.63146,0.0081 -0.42098,0.02756 -0.42098,0.0565 c -0.35278,0.06406 -0.70493,0.129957 -1.05245,0.218779 -0.3551,0.09075 -0.7024,0.206685 -1.05245,0.315084 l -0.63146,0.183694 -1.26294,0.334889 c -0.2869,0.08317 -0.56685,0.186664 -0.84196,0.302434 -0.28585,0.120312 -0.56391,0.258421 -0.84197,0.395807 l -1.05244,0.518269 c -0.3431,0.160267 -0.68851,0.312718 -1.05245,0.420264 -0.34415,0.101876 -0.69904,0.157862 -1.05245,0.216799 -0.34963,0.05852 -0.6984,0.115137 -1.05245,0.139979 l -0.84196,0.02718 c -0.21175,0.0091 -0.4214,0.02529 -0.63147,0.05259 -0.21154,0.02756 -0.42266,0.06609 -0.63147,0.10924 l -0.420979,0.08988 -0.631472,0.16355 -0.420973,0.121876 c -0.211547,0.0638 -0.423295,0.125871 -0.631472,0.199967 -0.285212,0.101452 -0.563274,0.221223 -0.841961,0.339521 l -0.631465,0.269845 -0.420981,0.196596 -0.420981,0.225017 c -0.353624,0.204808 -0.704934,0.413402 -1.052452,0.628311 l -1.052445,0.65757 c -0.411297,0.243328 -0.836488,0.45971 -1.262943,0.67441 l -1.473427,0.735661 c -0.489386,0.244593 -0.976043,0.496548 -1.473426,0.724927 l -1.052452,0.456765 c -0.356778,0.159548 -0.709353,0.328782 -1.052445,0.515909 -0.434666,0.237432 -0.849332,0.505386 -1.262943,0.777127 -0.28353,0.186281 -0.564531,0.37657 -0.841962,0.571903 -0.358674,0.252379 -0.710186,0.513596 -1.052445,0.788074 -0.218278,0.174916 -0.42624,0.362676 -0.631472,0.552534 -0.28753,0.266267 -0.561585,0.546643 -0.841955,0.820066 -0.207336,0.202285 -0.416353,0.401619 -0.631471,0.595479 -0.200389,0.180389 -0.413193,0.346885 -0.631471,0.505177 -0.404774,0.293207 -0.841329,0.540328 -1.262936,0.807859 -0.498022,0.316368 -0.990778,0.643045 -1.473433,0.982567 -0.433187,0.304579 -0.860482,0.619259 -1.262936,0.963831 -0.366253,0.313422 -0.710401,0.650624 -1.052237,0.990146 -0.346051,0.343516 -0.689359,0.690193 -1.016878,1.051604 l -0.727247,0.833752 c -0.184808,0.202279 -0.376986,0.394457 -0.579682,0.578848 L 61.63551,73.80534 c -0.277,0.225009 -0.557376,0.444975 -0.841114,0.661149 l -0.841962,0.62915 c -0.439292,0.351311 -0.849749,0.735453 -1.224207,1.155593 -0.180389,0.202488 -0.34899,0.414242 -0.512541,0.630624 l -0.457396,0.631472 -0.464343,0.631471 c -0.464552,0.625574 -0.94531,1.239991 -1.369237,1.894407 -0.264585,0.408351 -0.517383,0.827853 -0.735661,1.262936 -0.17197,0.343099 -0.316368,0.69946 -0.466441,1.052452 -0.118299,0.278056 -0.240383,0.555904 -0.338681,0.841955 -0.141029,0.409824 -0.241641,0.831861 -0.288581,1.262942 -0.03076,0.279953 -0.02803,0.560954 -0.03975,0.841955 -0.0091,0.209859 -0.01218,0.426456 -0.0638,0.631472 l -0.149448,0.419925 -0.121029,0.207545 -0.150503,0.20207 -0.174701,0.191547 -0.393832,0.322259 -0.417189,0.194492 -0.210282,0.04249 -0.21049,0.0093 -0.420974,-0.04966 -0.210491,-0.04314 C 51.253114,87.368286 50.974849,87.29945 50.690895,87.25904 50.480614,87.22913 50.271388,87.21525 50.059425,87.20495 H 49.63845 l -0.42098,0.02691 c -0.211964,0.01727 -0.422454,0.05644 -0.631472,0.09346 -0.352783,0.0623 -0.702823,0.13998 -1.052452,0.217855 -0.280578,0.06275 -0.559265,0.134297 -0.841955,0.187337 -0.348782,0.06547 -0.701565,0.10314 -1.052452,0.153873 l -0.631465,0.0964 -0.631471,0.0844 c -0.490019,0.0682 -0.977307,0.162287 -1.473433,0.171762 -0.280832,0.0053 -0.563861,-0.0093 -0.841955,-0.04947 -0.49434,-0.07178 -0.981074,-0.184606 -1.473433,-0.267747 -0.279001,-0.04712 -0.559481,-0.07156 -0.841955,-0.08419 -0.350215,-0.01538 -0.702008,-0.0081 -1.052452,-0.0082 h -1.683917 l -1.262936,2.16e-4 c -0.351272,0.0019 -0.702432,0.0019 -1.052452,0.03558 -0.28237,0.02737 -0.562323,0.07641 -0.841962,0.12314 -0.281907,0.04692 -0.562511,0.09661 -0.841955,0.156603 l -0.841961,0.210908 c -0.348574,0.07831 -0.701983,0.130928 -1.052453,0.199757 -0.211963,0.04165 -0.423228,0.09198 -0.631464,0.149449 -0.284945,0.07852 -0.572515,0.164182 -0.841962,0.287316 l -0.210491,0.09683 -0.42098,0.22207 c -0.354439,0.205649 -0.706675,0.414451 -1.052445,0.634417 -0.430646,0.274054 -0.850213,0.563267 -1.262943,0.863427 -0.288561,0.209858 -0.571055,0.42961 -0.841955,0.661781 -0.362024,0.31047 -0.707881,0.64094 -1.032791,0.990145 -0.189233,0.203329 -0.370503,0.41277 -0.542792,0.630624 -0.21571,0.272797 -0.414281,0.558641 -0.615557,0.841962 l -0.436575,0.631465 c -0.273821,0.412561 -0.528964,0.837544 -0.782028,1.262943 -0.124398,0.209225 -0.252536,0.416979 -0.367544,0.631471 -0.109312,0.203961 -0.213442,0.410873 -0.285361,0.631464 l -0.09989,0.420982 -0.02451,0.21049 c -0.0144,0.210699 -0.01896,0.42035 -0.0219,0.63147 l -6.52e-4,1.26294 1.63e-4,1.68392 c 0.0026,0.42097 -0.01055,0.85395 0.107193,1.26294 l 0.161603,0.42098 0.109957,0.21049 0.256616,0.42098 0.138049,0.21048 0.287316,0.42098 0.311025,0.42098 0.350815,0.42014 c 0.192804,0.21027 0.387511,0.4174 0.595747,0.61252 0.320851,0.3008 0.660308,0.58854 1.049356,0.79797 0.201478,0.1084 0.413213,0.18545 0.631302,0.25238 l 0.823285,0.22585 c 0.371095,0.11915 0.721539,0.301 1.10703,0.37279 0.197632,0.0368 0.398439,0.0448 0.598822,0.0507 l 0.628375,0.004 c 0.423699,-0.002 0.848212,6.3e-4 1.262943,-0.0987 0.216695,-0.0519 0.423927,-0.13198 0.631465,-0.21154 l 0.631471,-0.24944 0.631471,-0.25511 c 0.50431,-0.22396 1.003701,-0.46602 1.473427,-0.75692 l 0.420981,-0.27722 0.42098,-0.31658 0.841955,-0.69482 c 0.212198,-0.17892 0.426963,-0.35531 0.631472,-0.54307 0.359645,-0.33004 0.707182,-0.67167 1.052282,-1.01686 0.344631,-0.34458 0.691419,-0.68852 1.016076,-1.05225 0.300324,-0.33657 0.576744,-0.69083 0.845852,-1.05245 0.257007,-0.34541 0.49956,-0.7003 0.772454,-1.0335 0.16473,-0.20123 0.351565,-0.38246 0.542792,-0.55801 0.196049,-0.17996 0.405973,-0.34563 0.612631,-0.51318 l 0.841141,-0.67293 0.631465,-0.486441 0.42098,-0.286899 c 0.262273,-0.170706 0.54854,-0.312152 0.841962,-0.420349 0.205649,-0.07578 0.416556,-0.13008 0.631471,-0.172178 l 0.841956,-0.126295 c 0.495075,-0.08356 0.980044,-0.214068 1.473433,-0.306051 0.636098,-0.118924 1.289459,-0.18544 1.894407,-0.429401 0.847429,-0.341835 1.535524,-0.959829 2.315388,-1.419963 l 0.420557,-0.230908 0.416139,-0.189018 0.392561,-0.144189 0.313422,-0.09219 z"
     id="path4" />
  <path
     style="fill:#fefefe;stroke:none;stroke-width:0.210489"
     d="m 147.09482,37.421702 -0.42098,0.06106 -0.84196,0.159321 -1.05245,0.178663 c -0.56516,0.10213 -1.12591,0.223432 -1.68391,0.358928 l -0.84196,0.209833 c -0.35152,0.08837 -0.70388,0.174348 -1.05245,0.273852 -0.28269,0.08065 -0.56285,0.169591 -0.84196,0.261633 -0.28206,0.09306 -0.56453,0.187279 -0.84196,0.293488 -0.2128,0.08148 -0.42456,0.166835 -0.63147,0.262462 -0.35447,0.163824 -0.70324,0.339267 -1.05245,0.513889 -0.49697,0.248503 -0.99582,0.49406 -1.47343,0.77877 -0.35994,0.214615 -0.70914,0.447731 -1.05244,0.68801 -0.3589,0.251174 -0.71378,0.510058 -1.05245,0.78786 -0.36667,0.300688 -0.71441,0.622334 -1.0493,0.95775 -0.20417,0.20445 -0.40161,0.414374 -0.59589,0.628396 l -0.1806,0.21049 -0.32942,0.420981 c -0.40015,0.53778 -0.73545,1.118942 -1.09434,1.683917 -0.18396,0.289617 -0.38267,0.568279 -0.58958,0.841962 l -1.16296,1.473426 c -0.3111,0.407908 -0.60747,0.826745 -0.87775,1.262942 -0.12838,0.207121 -0.24942,0.417462 -0.36603,0.631465 l -0.10567,0.21049 -0.0972,0.210491 -0.15155,0.420811 -0.0781,0.418075 0.0187,0.404396 0.14124,0.371447 0.27069,0.324012 0.1747,0.143087 0.39382,0.247199 0.20756,0.09973 0.20964,0.07536 0.42056,0.0582 0.20986,-0.02711 0.20817,-0.06902 0.20544,-0.105584 0.3934,-0.304514 0.18608,-0.184684 0.3593,-0.40115 0.35973,-0.417905 0.36626,-0.420812 c 0.30184,-0.350463 0.59463,-0.709392 0.9051,-1.052452 0.32563,-0.359977 0.66599,-0.708525 1.01688,-1.044006 0.20481,-0.195737 0.41067,-0.393259 0.63126,-0.571374 l 0.21048,-0.169865 c 0.20628,-0.156037 0.41404,-0.308157 0.63148,-0.448449 l 0.42097,-0.253201 0.2105,-0.110778 c 0.20165,-0.105942 0.41718,-0.191208 0.63146,-0.267492 0.34142,-0.121492 0.69252,-0.209565 1.05245,-0.253364 0.27911,-0.03396 0.56138,-0.03552 0.84196,-0.03799 l 0.84196,-6.52e-4 h 2.31539 l 0.84196,-1.69e-4 0.63147,-0.0081 c 0.28227,-0.01284 0.56411,-0.03538 0.84195,-0.08931 0.42478,-0.08245 0.8426,-0.193879 1.26295,-0.295925 0.20922,-0.05083 0.4193,-0.102827 0.63146,-0.140337 0.20882,-0.03689 0.41951,-0.06668 0.63148,-0.0786 0.42055,-0.02366 0.84195,-0.01903 1.26293,-0.01903 0.49087,0 0.98425,-0.0116 1.47343,0.03571 0.28248,0.02737 0.56222,0.077 0.84196,0.122951 0.42182,0.06931 0.84302,0.140566 1.26295,0.220885 0.35004,0.06696 0.69882,0.145069 1.05244,0.190999 0.21007,0.02731 0.41993,0.04411 0.63147,0.05259 l 0.63147,0.0081 h 0.63148 c 0.41991,-0.0019 0.84848,0.0086 1.26293,-0.07147 0.4475,-0.08645 0.87269,-0.261953 1.24336,-0.529153 0.33237,-0.239743 0.60663,-0.54079 0.83354,-0.881088 l 0.23849,-0.413336 0.0983,-0.209858 0.0842,-0.210322 0.0699,-0.21049 0.0558,-0.21049 0.0655,-0.420982 c 0.0392,-0.507177 -0.0781,-1.004332 -0.26395,-1.473425 -0.27723,-0.698998 -0.70389,-1.333011 -1.20106,-1.893612 -0.42414,-0.478146 -0.89584,-0.923291 -1.43449,-1.270242 -0.58305,-0.375533 -1.24126,-0.613407 -1.89441,-0.834656 -0.48601,-0.1646 -0.97562,-0.318851 -1.47343,-0.443861 -0.69398,-0.174323 -1.39954,-0.298095 -2.10489,-0.4158 l -1.26295,-0.20967 c -0.21048,-0.03199 -0.41971,-0.06302 -0.63147,-0.08542 l -0.21048,-0.01284 -0.42098,0.01512 m -79.986171,34.198588 0.66515,-6.51e-4 c 0.199751,-0.0019 0.399508,-0.0039 0.598842,-0.01812 l 0.419925,-0.0419 0.631471,-0.108615 c 0.352569,-0.06736 0.702198,-0.148183 1.052452,-0.22628 0.209859,-0.04692 0.41887,-0.101244 0.631465,-0.135131 0.210074,-0.03324 0.418668,-0.05135 0.631472,-0.04568 0.282689,0.0075 0.565795,0.05872 0.841961,0.115346 l 0.631465,0.140188 c 0.28248,0.07051 0.561801,0.153026 0.841962,0.23238 0.352568,0.09999 0.707033,0.1947 1.052452,0.318049 0.429394,0.153025 0.84406,0.344572 1.262936,0.523913 0.353415,0.151129 0.708512,0.297208 1.052452,0.469393 0.359723,0.179966 0.707033,0.382454 1.052445,0.588317 0.28353,0.169025 0.566011,0.339939 0.841962,0.520961 0.287108,0.188177 0.568324,0.386247 0.841955,0.593791 0.510227,0.386671 1.008673,0.801128 1.428389,1.287146 l 0.328574,0.418035 0.251741,0.420349 0.16924,0.416132 0.0924,0.392569 0.02313,0.210698 0.01218,0.102717 0.0097,0.351734 -0.351728,-0.09915 -0.313416,-0.150289 -0.392567,-0.262272 -0.416139,-0.344781 -0.420558,-0.373201 -0.42098,-0.356778 -0.631465,-0.490859 C 79.182403,75.807032 78.83278,75.552339 78.475155,75.30817 78.201941,75.121681 77.917779,74.949287 77.6332,74.781104 c -0.3431,-0.202912 -0.691041,-0.398036 -1.052453,-0.566637 -0.409615,-0.191123 -0.835014,-0.34394 -1.262935,-0.488123 -0.413617,-0.139556 -0.831229,-0.281216 -1.262943,-0.353207 -0.209435,-0.03512 -0.419717,-0.04985 -0.631471,-0.06106 l -0.631464,-0.02633 -0.420982,-0.0406 c -0.279952,-0.03454 -0.559063,-0.07956 -0.841961,-0.07956 -0.282898,0 -0.56201,0.04503 -0.841956,0.07956 l -0.42098,0.0406 -0.841961,0.03832 -0.420982,0.04966 -0.42098,0.09599 c -0.286261,0.07893 -0.567269,0.187128 -0.841956,0.299529 -0.283529,0.115978 -0.569588,0.230066 -0.841962,0.371094 -0.743239,0.384775 -1.454905,0.839219 -2.104897,1.36755 -0.445184,0.361835 -0.856064,0.761343 -1.262727,1.165269 -0.345837,0.3431 -0.691673,0.688095 -1.016037,1.051612 -0.415084,0.464968 -0.790389,0.963199 -1.147798,1.473426 -0.332366,0.475076 -0.65252,0.961309 -0.925735,1.473427 -0.21786,0.408566 -0.398459,0.834174 -0.572325,1.262942 -0.169018,0.417188 -0.328574,0.837537 -0.475702,1.262936 -0.120612,0.348365 -0.237013,0.699037 -0.341627,1.052452 -0.102723,0.346677 -0.198916,0.696724 -0.264585,1.052445 -0.07725,0.417612 -0.1023,0.842171 -0.157028,1.262943 -0.03643,0.280584 -0.09241,0.55969 -0.115346,0.841962 -0.03428,0.419501 -0.04523,0.842163 -0.02756,1.262935 0.0091,0.211541 0.02587,0.42119 0.05181,0.631472 l 0.09114,0.631465 0.118715,1.052452 0.115353,0.841961 c 0.03304,0.347094 0.03324,0.694828 0.03558,1.042977 l 2.16e-4,0.851431 -0.432562,-0.12419 -0.187753,-0.09241 -0.300793,-0.271317 -0.133449,-0.174707 -0.225225,-0.393826 -0.09198,-0.207545 c -0.07809,-0.206489 -0.154498,-0.414034 -0.201647,-0.630416 l -0.04445,-0.21049 -0.09346,-0.631471 -0.06126,-0.420981 c -0.04021,-0.280161 -0.08777,-0.558848 -0.102932,-0.841955 -0.01916,-0.350678 -0.01831,-0.701357 -0.01896,-1.052453 v -1.052451 l 2.14e-4,-0.841955 0.0081,-0.631472 c 0.0086,-0.211539 0.02548,-0.421397 0.05265,-0.631471 0.03682,-0.282683 0.09451,-0.562635 0.149871,-0.841955 l 0.210068,-1.052452 c 0.05494,-0.277632 0.112192,-0.555904 0.149864,-0.836697 0.03135,-0.234485 0.05031,-0.469601 0.05767,-0.705983 l 0.0032,-0.351727 -0.262056,0.228593 -0.0625,0.09072 -0.135346,0.169233 c -0.158076,0.246482 -0.29174,0.50665 -0.40751,0.775446 l -0.162919,0.419925 -0.06652,0.21049 -0.05474,0.21049 -0.0724,0.420981 c -0.03474,0.278688 -0.03623,0.561586 -0.03813,0.841962 -0.0032,0.490859 0.01218,0.984248 -0.03682,1.473426 -0.04229,0.424976 -0.130712,0.84554 -0.21891,1.262936 -0.149442,0.707456 -0.328358,1.409445 -0.526011,2.104898 l -0.182918,0.631471 -0.304364,1.052452 -0.199966,0.631465 c -0.166919,0.552117 -0.327941,1.108652 -0.389616,1.683923 -0.03767,0.349414 -0.03474,0.701559 -0.03643,1.052446 l -2.14e-4,1.473433 v 1.683917 c 6.32e-4,0.35046 -0.0053,0.70241 0.01896,1.05244 0.02887,0.42392 0.109038,0.84112 0.155979,1.26295 0.03115,0.2791 0.03512,0.56158 0.04523,0.84196 0.01284,0.35088 0.02418,0.70135 0.01955,1.05244 l -0.0187,0.63147 -0.0095,0.84196 c 4.17e-4,0.28058 0.0053,0.56264 0.03559,0.84196 0.03832,0.3572 0.117451,0.70514 0.207538,1.05245 l 0.12735,0.42098 0.169233,0.42098 0.238695,0.42097 0.320362,0.42078 c 0.189233,0.21491 0.383517,0.42224 0.587268,0.62347 0.203127,0.20018 0.414035,0.39172 0.628311,0.57968 l 0.841122,0.72725 c 0.28353,0.25385 0.550429,0.52622 0.807018,0.80702 0.187337,0.20481 0.364566,0.41825 0.543059,0.63062 l 0.528331,0.62832 c 0.227961,0.26837 0.458028,0.53633 0.708512,0.78428 0.184808,0.18271 0.378459,0.35531 0.579474,0.51991 0.265851,0.21744 0.542857,0.42099 0.83375,0.60368 0.400356,0.25133 0.828909,0.46161 1.262943,0.6479 0.679878,0.29215 1.389022,0.49948 2.104898,0.68262 0.4856,0.12439 0.973938,0.253 1.473426,0.30646 0.279536,0.0301 0.561169,0.0341 0.841962,0.0358 l 1.052446,6.5e-4 h 2.525878 l 0.841962,2.1e-4 0.631471,0.008 0.420981,0.0278 0.420974,0.0564 c 0.352151,0.0631 0.703038,0.13093 1.052452,0.20733 0.489595,0.10714 0.973939,0.24165 1.473427,0.29511 0.349414,0.0375 0.701565,0.0348 1.052452,0.0364 l 1.052445,2.1e-4 0.841962,-2.1e-4 0.631471,-0.008 c 0.21154,-0.009 0.421398,-0.0255 0.631465,-0.0526 0.211755,-0.0276 0.422245,-0.0672 0.631471,-0.10861 l 0.631471,-0.13029 0.841962,-0.19491 c 0.628727,-0.14209 1.262304,-0.26291 1.894407,-0.38941 l 0.841956,-0.16818 0.63147,-0.1183 c 0.209858,-0.0327 0.419293,-0.0592 0.631472,-0.0735 0.210275,-0.0144 0.420765,-0.0156 0.631471,-0.0181 l 0.841955,-0.004 c 0.210699,-0.004 0.422031,-0.0103 0.631471,-0.0356 l 0.42098,-0.0703 0.42098,-0.10967 0.84196,-0.26122 0.84196,-0.2408 c 0.42603,-0.12692 0.8508,-0.25932 1.26293,-0.42729 0.28627,-0.11662 0.57064,-0.24459 0.84197,-0.39341 l 0.42098,-0.23806 0.42098,-0.26207 0.63146,-0.43086 c 0.21534,-0.1524 0.42267,-0.31574 0.63147,-0.47676 0.34921,-0.26922 0.69146,-0.54644 1.05246,-0.80008 0.25532,-0.17934 0.53379,-0.35299 0.84195,-0.42266 0.50265,-0.11388 0.99814,0.0943 1.47343,0.23154 0.48602,0.14039 0.97604,0.26648 1.47343,0.36036 l 0.42098,0.0737 0.21049,0.024 0.21049,0.009 0.42097,-0.0476 c 0.22018,-0.048 0.42941,-0.13661 0.63147,-0.23406 0.2949,-0.14209 0.57107,-0.31764 0.84197,-0.50033 0.28752,-0.19387 0.56137,-0.40668 0.84195,-0.61022 0.34416,-0.24963 0.68788,-0.50012 1.05246,-0.71967 l 0.42098,-0.23848 0.21048,-0.10357 0.42098,-0.16439 0.21049,-0.0528 0.42098,-0.036 0.21049,0.009 0.63147,0.0491 c 0.28059,0.0156 0.56116,0.0168 0.84196,0.0179 l 0.42098,-6.3e-4 c 0.35152,-0.004 0.70746,-0.004 1.05245,-0.0821 0.21891,-0.0491 0.4275,-0.12209 0.63147,-0.21533 0.2189,-0.1 0.42582,-0.22354 0.63147,-0.34774 l 0.42098,-0.26858 0.84196,-0.55485 c 0.26921,-0.17345 0.54411,-0.34099 0.84196,-0.46098 0.27069,-0.10924 0.5559,-0.17006 0.84196,-0.22311 l 0.63147,-0.11072 0.42098,-0.0771 0.42098,-0.10525 0.21048,-0.072 c 0.59696,-0.21954 1.12739,-0.57675 1.68393,-0.87775 0.33825,-0.18291 0.68135,-0.3614 1.05244,-0.46876 l 0.42099,-0.0903 0.63146,-0.0595 0.42099,-0.0452 0.42013,-0.0726 0.41361,-0.10819 0.19976,-0.0771 0.37677,-0.22628 0.34331,-0.32794 0.31869,-0.39404 0.30499,-0.41404 0.30627,-0.40414 0.16123,-0.19049 0.3513,-0.34015 0.19134,-0.14314 0.40456,-0.22101 c 0.26543,-0.11703 0.55529,-0.17344 0.83881,-0.22607 l 0.84195,-0.14797 0.2105,-0.0392 0.42098,-0.0966 0.63147,-0.17786 c 0.35046,-0.0928 0.7064,-0.16229 1.05244,-0.27133 0.35784,-0.11282 0.70662,-0.25742 1.05246,-0.40224 0.35383,-0.14839 0.70409,-0.30542 1.05244,-0.46645 0.28606,-0.13239 0.56833,-0.27258 0.84196,-0.42919 0.44034,-0.25174 0.85881,-0.54032 1.26294,-0.84637 0.28921,-0.218909 0.57149,-0.446447 0.84196,-0.688303 l 0.84196,-0.762184 0.2105,-0.172602 c 0.19827,-0.161446 0.41402,-0.300154 0.63146,-0.433819 l 0.21049,-0.121869 c 0.20944,-0.113881 0.41719,-0.22965 0.63147,-0.334472 0.27553,-0.134713 0.5578,-0.253853 0.84196,-0.36899 0.48896,-0.197861 0.99036,-0.364989 1.47342,-0.576744 0.21344,-0.09366 0.42351,-0.195541 0.63148,-0.300362 0.35615,-0.179549 0.70977,-0.362467 1.05245,-0.566851 0.28669,-0.170921 0.56621,-0.354048 0.84196,-0.542225 0.2128,-0.145239 0.42413,-0.293423 0.63062,-0.447713 0.20965,-0.156388 0.4134,-0.317417 0.61359,-0.486018 l 0.19322,-0.175762 0.18565,-0.183968 0.17871,-0.192804 0.17281,-0.199757 0.33174,-0.413611 c 0.15344,-0.20628 0.30331,-0.412769 0.44033,-0.63063 0.25386,-0.40435 0.4593,-0.836905 0.67315,-1.262936 l 0.52749,-1.052452 c 0.1766,-0.352151 0.34815,-0.707665 0.53865,-1.052446 l 0.24248,-0.42098 c 0.13366,-0.214068 0.27132,-0.42435 0.41572,-0.631472 0.39677,-0.569164 0.83669,-1.107596 1.22336,-1.683916 0.31511,-0.469818 0.59148,-0.962782 0.83439,-1.473433 0.19344,-0.406455 0.37382,-0.822594 0.47486,-1.262936 0.0477,-0.208178 0.0753,-0.418668 0.0918,-0.631471 0.0159,-0.210276 0.0154,-0.420766 0.0188,-0.631465 l 6.4e-4,-0.841962 -2.1e-4,-0.841962 -0.008,-0.631465 -0.0284,-0.42098 c -0.0187,-0.212387 -0.06,-0.423295 -0.10418,-0.631471 -0.19787,-0.933313 -0.56286,-1.820104 -0.82154,-2.736369 -0.17555,-0.622837 -0.30648,-1.257886 -0.42183,-1.894408 l -0.18376,-1.052452 c -0.0568,-0.282051 -0.12209,-0.563691 -0.19554,-0.841955 l -0.11261,-0.420981 -0.13345,-0.42098 -0.1665,-0.420982 c -0.0924,-0.214484 -0.19702,-0.424342 -0.30479,-0.631464 -0.14903,-0.286899 -0.309,-0.567275 -0.47992,-0.841961 -0.2248,-0.361621 -0.46328,-0.717558 -0.7266,-1.052453 -0.17156,-0.218278 -0.35384,-0.426663 -0.54117,-0.631464 l -0.78767,-0.841962 c -0.24669,-0.274687 -0.48222,-0.558849 -0.71881,-0.841962 l -0.69546,-0.841955 c -0.21891,-0.27511 -0.43235,-0.555271 -0.6361,-0.841962 -0.24627,-0.346885 -0.48392,-0.699453 -0.72156,-1.052445 l -0.42645,-0.631472 c -0.19618,-0.284585 -0.39761,-0.565163 -0.60474,-0.841961 -0.21554,-0.288157 -0.44287,-0.570846 -0.68936,-0.833536 -0.18818,-0.200597 -0.38518,-0.396562 -0.598,-0.571269 l -0.20817,-0.17008 c -0.27322,-0.208595 -0.55254,-0.406456 -0.84112,-0.593368 -0.40562,-0.262481 -0.82448,-0.50665 -1.26294,-0.710402 l -0.42097,-0.180813 -0.42098,-0.150713 -0.42099,-0.12419 c -0.20712,-0.05871 -0.41929,-0.107766 -0.63104,-0.146078 -0.26775,-0.04862 -0.53697,-0.07683 -0.80871,-0.08967 -0.22122,-0.0103 -0.44392,-0.0065 -0.66515,-0.0082 l 0.2286,0.351727 0.0907,0.102717 0.16902,0.210698 0.94952,1.018774 c 0.24669,0.274478 0.48307,0.558008 0.71862,0.841962 0.28711,0.34583 0.57589,0.689561 0.84153,1.052445 0.39067,0.533591 0.7403,1.09792 1.04656,1.683917 0.21344,0.408352 0.41403,0.827019 0.56495,1.262943 0.0717,0.207545 0.12735,0.41782 0.18144,0.630415 l 0.0909,0.412562 0.16987,0.85143 -0.35089,-0.01303 -0.10019,-0.01792 -0.20502,-0.03597 -0.35677,-0.149448 -0.32669,-0.271532 -0.14102,-0.174708 -0.12925,-0.191754 -0.22943,-0.409616 -0.1063,-0.20965 -0.52917,-1.052237 c -0.14503,-0.285843 -0.29027,-0.572533 -0.46476,-0.841955 l -0.1406,-0.21049 -0.32438,-0.420981 -0.538,-0.631263 c -0.297,-0.346885 -0.58748,-0.699662 -0.91753,-1.016029 -0.38436,-0.368359 -0.81249,-0.688728 -1.2442,-0.998989 -0.20776,-0.149233 -0.41824,-0.29468 -0.63147,-0.436133 -0.20712,-0.13766 -0.41635,-0.273429 -0.63147,-0.398036 l -0.42098,-0.229858 c -0.27637,-0.134081 -0.55612,-0.257215 -0.84196,-0.369831 -0.47781,-0.188594 -0.96742,-0.357409 -1.47343,-0.45213 -0.20923,-0.03936 -0.4193,-0.06419 -0.63146,-0.07956 l -0.84197,-0.03767 -0.42098,-0.04125 c -0.28079,-0.03832 -0.55991,-0.08504 -0.84196,-0.111769 -0.21007,-0.01981 -0.4214,-0.01492 -0.63147,0 -0.21175,0.01519 -0.42161,0.0522 -0.63147,0.08315 l -0.42098,0.06125 -0.42097,0.05559 c -0.21197,0.03239 -0.42204,0.06673 -0.63147,0.112401 -0.57717,0.125876 -1.13623,0.314686 -1.68392,0.534645 -0.3591,0.144183 -0.71377,0.297632 -1.05245,0.485601 -0.21575,0.119556 -0.42793,0.249642 -0.63147,0.388983 -0.21407,0.146295 -0.4273,0.293422 -0.63147,0.453604 -0.29405,0.23049 -0.57169,0.480342 -0.83881,0.74135 -0.33636,0.328573 -0.65567,0.674409 -0.94656,1.044026 -0.21197,0.269219 -0.40983,0.552749 -0.59338,0.841961 l -0.26226,0.420981 -0.24018,0.420975 c -0.14735,0.277006 -0.2911,0.556118 -0.42098,0.841961 -0.21638,0.476758 -0.39845,0.969305 -0.54011,1.473427 -0.0977,0.347308 -0.16756,0.700724 -0.24627,1.052452 -0.10925,0.488755 -0.24186,0.974355 -0.29511,1.473426 -0.0301,0.279535 -0.0332,0.561169 -0.0358,0.841962 l -0.004,0.841961 c -0.004,0.281842 -0.019,0.563482 -0.0654,0.841956 -0.0703,0.421613 -0.21091,0.824699 -0.34478,1.229264 l -0.10567,0.313415 -0.11239,0.351734 -0.3389,-0.286266 -0.0846,-0.08294 -0.17492,-0.173651 -0.24291,-0.339939 -0.1446,-0.388776 -0.0354,-0.205016 -0.0271,-0.418035 -0.004,-0.210282 -8.8e-4,-0.420975 2.1e-4,-0.841961 c 6.5e-4,-0.280584 -6.2e-4,-0.561801 0.0187,-0.841962 0.0291,-0.424558 0.10419,-0.843642 0.17491,-1.262935 0.0594,-0.352992 0.12082,-0.704512 0.20565,-1.052453 0.17576,-0.719453 0.4233,-1.417226 0.69588,-2.104897 0.1404,-0.354256 0.28584,-0.706192 0.44539,-1.052445 0.0992,-0.215125 0.21113,-0.425191 0.32753,-0.631472 0.28963,-0.513597 0.62116,-1.001511 0.97394,-1.473426 0.16186,-0.216596 0.3372,-0.423301 0.50959,-0.631263 0.23091,-0.278896 0.46455,-0.555062 0.70767,-0.823226 l 0.18607,-0.192811 0.19365,-0.183967 0.19976,-0.175756 0.41361,-0.329414 c 0.33741,-0.258695 0.68851,-0.502024 1.05161,-0.723247 0.47507,-0.289421 0.97667,-0.532078 1.47343,-0.781109 l 1.05139,-0.52719 0.59885,-0.302435 0.21069,-0.11661 0.10273,-0.05194 0.35173,-0.212759 -0.2286,-0.123121 -0.0907,-0.01199 -0.16923,-0.04158 -0.36583,-0.02665 -0.82954,-0.0072 -1.26294,-1.7e-4 c -0.35089,-0.0019 -0.70304,0.0013 -1.05245,-0.03636 -0.42835,-0.04581 -0.84365,-0.153489 -1.26294,-0.247512 l -0.84196,-0.178031 c -0.20964,-0.04053 -0.41972,-0.08096 -0.63147,-0.108464 -0.21008,-0.02731 -0.41993,-0.04411 -0.63147,-0.05259 l -0.63147,-0.0081 -1.26294,-1.69e-4 -1.26294,1.69e-4 c -0.281,0.0013 -0.56116,0.0046 -0.84196,0.01864 l -0.42098,0.04144 -0.42098,0.064 -0.42097,0.0695 -0.63147,0.11141 -0.42099,0.09439 c -0.57,0.139132 -1.12969,0.323119 -1.68392,0.514835 l -0.63146,0.227394 -0.42098,0.161589 c -0.41551,0.157236 -0.83185,0.319926 -1.26295,0.430899 -0.20879,0.05377 -0.41803,0.09471 -0.63146,0.124398 l -0.42098,0.04614 -0.42098,0.04887 c -0.2808,0.03656 -0.55969,0.09076 -0.84197,0.115646 l -0.42097,0.03036 c -0.2107,0.0116 -0.4214,0.01942 -0.63147,0.0408 -0.35299,0.03584 -0.70282,0.09929 -1.05245,0.15818 -0.35299,0.05949 -0.70451,0.120821 -1.05244,0.205799 -0.72051,0.175925 -1.4286,0.413988 -2.1049,0.718567 -0.35573,0.160188 -0.70114,0.341835 -1.05245,0.511492 l -0.42098,0.199757 -0.63147,0.272374 c -0.20691,0.08546 -0.41761,0.167336 -0.63147,0.233853 l -0.42098,0.113664 -0.21049,0.0406 -0.63147,0.09282 c -0.28058,0.04125 -0.5599,0.08841 -0.84196,0.118715 -0.35047,0.03767 -0.70324,0.04633 -1.05245,0.09788 -0.42687,0.06315 -0.84469,0.175339 -1.26294,0.279529 -0.42224,0.105037 -0.8468,0.204808 -1.262939,0.332151 -0.355721,0.108823 -0.703455,0.239959 -1.052445,0.367935 -0.281217,0.10314 -0.564538,0.201862 -0.841962,0.314894 l -1.052445,0.448345 -0.841962,0.364149 c -0.49739,0.228379 -0.984039,0.480334 -1.473426,0.724927 l -2.315388,1.156427 c -0.420141,0.210073 -0.838176,0.424982 -1.262943,0.62558 l -0.631471,0.285634 c -0.281002,0.121453 -0.565372,0.235326 -0.841955,0.367095 l -0.420981,0.211122 -0.420981,0.238063 -0.420981,0.262057 c -0.214909,0.136186 -0.427289,0.281008 -0.630624,0.434034 -0.285426,0.214694 -0.558849,0.443079 -0.807018,0.700718 l -0.727242,0.786602 -0.379938,0.359515 c -0.325629,0.286685 -0.681566,0.537591 -1.033502,0.790389 l -0.631471,0.448553 -0.631471,0.454235 -0.841956,0.598848 c -0.424141,0.307943 -0.843857,0.621788 -1.262941,0.936468 l -0.829542,0.633577 -0.191546,0.159548 -0.32394,0.315528 -0.129455,0.183543 -0.07177,0.08735 z"
     id="path6-3" />
  <path
     style="fill:#100c0c;stroke:none;stroke-width:0.210489"
     d="m 127.09913,69.83806 c -0.4214,0.103773 -0.8287,0.281849 -1.12633,0.607477 l -0.13556,0.16965 -0.21048,0.382884 -0.12946,0.412562 -0.0378,0.209858 c -0.024,0.210698 -0.0385,0.419084 -0.0385,0.631256 0,0.210282 0.007,0.423294 0.0385,0.631471 0.0432,0.28963 0.12482,0.573374 0.26164,0.833535 l 0.25174,0.390463 0.15598,0.180175 0.1726,0.167552 0.38498,0.291532 0.2046,0.121029 0.41803,0.183126 0.42077,0.09998 0.21049,0.0221 0.21049,0.0075 0.2105,-0.007 0.42097,-0.05786 c 0.46118,-0.103557 0.88974,-0.326885 1.25052,-0.631256 l 0.36646,-0.360147 0.1505,-0.197444 0.12103,-0.204593 0.0895,-0.208176 c 0.10019,-0.267949 0.11345,-0.558641 0.12292,-0.841116 0.007,-0.210066 0.006,-0.421403 0.004,-0.63147 -0.003,-0.211123 -0.007,-0.420558 -0.0221,-0.631257 l -0.025,-0.209858 -0.10819,-0.412561 -0.21049,-0.382252 -0.14566,-0.167128 -0.16712,-0.145656 -0.38225,-0.21049 -0.41257,-0.108191 -0.20986,-0.02502 c -0.28037,-0.01955 -0.56074,-0.02398 -0.84175,-0.0219 -0.42203,0.0032 -0.84995,0.0096 -1.26209,0.111136 z"
     id="path8" />
  <path
     style="fill:#fefefe;stroke:none;stroke-width:0.210489"
     d="m 53.216361,90.774851 -0.01303,-0.347517 -0.05389,-0.287317 -0.06002,-0.152817 -0.210491,-0.278688 -0.325204,-0.189865 -0.393825,-0.11577 -0.417195,-0.06777 -0.631256,-0.06631 -0.841962,-0.114714 -0.21049,-0.01916 -0.420975,2.15e-4 c -0.212178,0.01199 -0.422453,0.04842 -0.631471,0.08546 l -0.631471,0.125239 -1.262936,0.287316 c -0.349414,0.07663 -0.700301,0.14419 -1.052452,0.207337 l -0.420981,0.05644 -0.42098,0.02776 -0.631465,0.0081 -0.631472,2.09e-4 H 41.849898 39.53451 l -0.631472,-2.09e-4 -0.631471,-0.0081 c -0.211709,-0.0093 -0.421059,-0.02633 -0.631465,-0.05181 -0.280356,-0.03369 -0.558894,-0.0884 -0.841962,-0.09598 l -0.42098,0.01388 -0.631465,0.08209 -0.42098,0.04106 c -0.420225,0.02887 -0.84219,0.01388 -1.262943,0.02718 -0.282748,0.0091 -0.5627,0.04021 -0.841955,0.08419 l -0.420981,0.07768 -0.631471,0.141028 c -0.284436,0.07282 -0.565105,0.159341 -0.841962,0.257007 -0.429778,0.151553 -0.848505,0.332783 -1.262936,0.521801 -0.283842,0.129455 -0.566285,0.262481 -0.841962,0.408775 -0.214087,0.11345 -0.423144,0.235534 -0.631465,0.359091 -0.290899,0.172818 -0.5743,0.361835 -0.841961,0.568957 -0.450488,0.348357 -0.860443,0.74724 -1.259847,1.152431 -0.331584,0.336153 -0.654345,0.680092 -0.946568,1.051605 -0.160077,0.203543 -0.311545,0.415507 -0.454262,0.631471 -0.226717,0.343099 -0.444533,0.691041 -0.641383,1.052452 -0.149865,0.275111 -0.286853,0.556535 -0.415612,0.841955 l -0.166326,0.420982 -0.06886,0.21049 -0.06171,0.21049 -0.0968,0.420965 c -0.03943,0.20903 -0.06458,0.41951 -0.07942,0.63148 -0.01473,0.21027 -0.01492,0.42077 -0.01818,0.63146 l -6.51e-4,0.84197 6.51e-4,0.63147 0.0026,0.21049 0.01949,0.42097 0.02451,0.21049 0.100696,0.42099 c 0.102209,0.30226 0.261295,0.58052 0.442259,0.84174 0.151741,0.21912 0.320955,0.42709 0.501214,0.62326 l 0.390437,0.39047 0.205147,0.18017 0.418055,0.32121 0.420811,0.26206 0.420975,0.19891 c 0.467184,0.18986 0.972237,0.28437 1.473433,0.32058 0.209753,0.0152 0.421254,0.0177 0.63147,0.0149 0.281862,-0.004 0.563541,-0.0181 0.841955,-0.0646 0.359164,-0.0597 0.70994,-0.16734 1.052453,-0.28921 0.285993,-0.10167 0.571497,-0.21366 0.841955,-0.35216 0.511622,-0.26227 1.002332,-0.55927 1.473433,-0.88868 0.293084,-0.20481 0.565796,-0.43908 0.841955,-0.66578 0.212426,-0.17429 0.425132,-0.34983 0.63065,-0.53212 0.280923,-0.24943 0.554913,-0.50602 0.807039,-0.78491 0.375115,-0.41467 0.725749,-0.85039 1.107029,-1.25979 0.335124,-0.35972 0.686284,-0.7045 1.033613,-1.05245 l 1.262935,-1.26294 0.841962,-0.841107 c 0.342591,-0.337202 0.682849,-0.676724 1.052452,-0.984671 0.269258,-0.224378 0.55331,-0.428346 0.841956,-0.626838 l 0.631471,-0.421607 0.63147,-0.398042 0.420975,-0.237222 0.420981,-0.203543 0.420981,-0.161023 c 0.27595,-0.09472 0.562009,-0.159763 0.841962,-0.241431 0.280577,-0.08188 0.558848,-0.171547 0.841955,-0.244801 0.209017,-0.0539 0.419717,-0.09893 0.631471,-0.141028 0.420349,-0.08377 0.845331,-0.140397 1.262942,-0.237855 0.214909,-0.05011 0.426657,-0.121452 0.631465,-0.202911 0.291741,-0.116187 0.570429,-0.260793 0.841962,-0.41782 l 0.631471,-0.389824 c 0.278056,-0.172818 0.556953,-0.343315 0.841955,-0.504337 0.344787,-0.194916 0.695042,-0.377619 1.052452,-0.547907 0.274055,-0.130504 0.557376,-0.243322 0.836697,-0.362044 l 0.392561,-0.167128 0.210705,-0.08251 0.102716,-0.0436 z"
     id="path10" />
  <path
     style="fill:#100c0c;stroke:none;stroke-width:0.210489"
     d="m 115.94233,89.829124 c -0.21365,0.03095 -0.42582,0.0863 -0.63148,0.151129 -0.21616,0.06799 -0.42687,0.150289 -0.63146,0.247746 -0.21765,0.103558 -0.42624,0.225225 -0.63147,0.350888 -0.2871,0.17597 -0.56559,0.366038 -0.84196,0.558216 L 112.364,91.73805 c -0.34773,0.244592 -0.69778,0.485392 -1.05245,0.719877 -0.41277,0.273006 -0.82912,0.538856 -1.26293,0.777127 -0.34543,0.189865 -0.70031,0.362043 -1.05246,0.538646 -0.48939,0.245219 -0.97729,0.493389 -1.47343,0.724929 -0.277,0.129448 -0.56095,0.243953 -0.84195,0.364148 -0.35026,0.149865 -0.6982,0.30542 -1.05246,0.445816 -0.2069,0.08209 -0.41886,0.149865 -0.63146,0.215749 l -0.42098,0.121244 -0.63147,0.186281 -1.47343,0.474659 c -0.49234,0.148393 -0.99751,0.264585 -1.47343,0.462656 -0.44792,0.186495 -0.86869,0.431714 -1.25452,0.726191 l -0.39046,0.32415 -0.18018,0.175338 -0.16775,0.183759 -0.15409,0.19281 -0.26669,0.4052 -0.21049,0.41802 -0.0842,0.21028 -0.0701,0.21049 c -0.0682,0.20439 -0.0985,0.41867 -0.12546,0.63147 l -0.006,0.42077 0.0251,0.20987 0.11913,0.4134 0.0966,0.19933 0.12124,0.19113 0.30521,0.34772 0.17786,0.15344 0.19049,0.13809 0.40436,0.2227 c 0.20144,0.0894 0.41108,0.14714 0.62831,0.18207 0.20838,0.0337 0.42098,0.0393 0.63147,0.0434 0.28164,0.005 0.56179,-0.009 0.84196,-0.0349 l 0.21048,-0.0303 0.42099,-0.0968 c 0.51444,-0.14587 0.9954,-0.38983 1.47342,-0.62453 l 1.47343,-0.73397 c 0.20924,-0.10209 0.4174,-0.20691 0.63148,-0.2989 0.27385,-0.11767 0.55421,-0.21891 0.84195,-0.29679 l 0.42098,-0.0966 0.2105,-0.0351 0.21048,-0.0267 0.42098,-0.0284 0.63147,-0.008 c 0.48876,-0.006 1.00951,0.0238 1.45449,-0.21638 0.28836,-0.15555 0.50917,-0.39257 0.72093,-0.63716 0.22459,-0.25953 0.42245,-0.54158 0.65861,-0.79144 l 0.35994,-0.34857 0.39256,-0.29974 0.20544,-0.13408 c 0.20544,-0.122923 0.41194,-0.242479 0.62831,-0.345828 0.2709,-0.129455 0.5496,-0.239542 0.84197,-0.310477 0.34941,-0.08461 0.70556,-0.13766 1.05244,-0.233644 0.21386,-0.05917 0.42351,-0.130081 0.63148,-0.207539 l 0.84195,-0.338681 0.42099,-0.163127 0.42098,-0.170712 0.21028,-0.0964 0.20985,-0.108614 0.20818,-0.119347 c 0.20669,-0.133026 0.41066,-0.2669 0.59484,-0.430874 l 0.341,-0.348566 0.14523,-0.19113 0.1263,-0.199334 0.1968,-0.413401 0.0739,-0.209859 c 0.0596,-0.207329 0.11788,-0.416347 0.14482,-0.631256 l 0.0267,-0.21049 0.0154,-0.210491 0.005,-0.21049 -0.0231,-0.420981 c -0.0787,-0.686825 -0.35236,-1.355552 -0.84955,-1.846411 -0.23027,-0.227545 -0.49696,-0.406038 -0.79544,-0.531492 -0.20186,-0.08503 -0.41718,-0.137868 -0.63062,-0.184384 l -0.42098,-0.07325 -0.21049,-0.02085 -0.21049,-0.0075 -0.42098,0.03434 M 70.266139,91.58739 c -0.390248,0.158076 -0.735035,0.418035 -1.043192,0.701141 -0.37404,0.343731 -0.722399,0.742607 -0.905525,1.223157 -0.126712,0.332993 -0.151345,0.699878 -0.133242,1.052447 0.0303,0.595903 0.209441,1.185693 0.54601,1.680762 0.246698,0.3631 0.562851,0.673993 0.907631,0.943414 0.316792,0.24733 0.666838,0.46624 1.049299,0.595688 0.338465,0.114506 0.697557,0.141029 1.052445,0.141453 0.210282,2.08e-4 0.423294,-0.0075 0.631472,-0.03852 0.217013,-0.0322 0.426448,-0.0863 0.631471,-0.164391 l 0.420133,-0.194707 0.208177,-0.118507 0.205225,-0.131762 0.389831,-0.298896 c 0.243746,-0.214909 0.453395,-0.461814 0.623045,-0.73903 l 0.210491,-0.413402 0.07872,-0.209858 0.107983,-0.420772 0.04862,-0.420981 0.0059,-0.210491 -0.0078,-0.210483 -0.05702,-0.420981 c -0.07872,-0.369199 -0.227747,-0.725136 -0.415924,-1.051612 -0.207544,-0.359932 -0.461397,-0.699877 -0.78681,-0.961934 l -0.402037,-0.264169 -0.208177,-0.09198 -0.420134,-0.10819 -0.42098,-0.03871 c -0.280585,-0.0092 -0.561378,-0.01055 -0.841962,-0.0091 -0.495917,0.0026 -1.005089,-0.0093 -1.473426,0.180389 z"
     id="path12" />
  <path
     style="fill:#fefefe;stroke:none;stroke-width:0.210489"
     d="m 93.63041,156.44768 -6.5e-4,-0.85143 c -0.002,-0.20755 -0.004,-0.4153 -0.0181,-0.62243 -0.0291,-0.42371 -0.10504,-0.84216 -0.16418,-1.26251 l -0.0556,-0.42098 c -0.0327,-0.21197 -0.0667,-0.42224 -0.11472,-0.63147 -0.0987,-0.42982 -0.24859,-0.84343 -0.38226,-1.26294 l -0.25511,-0.84196 c -0.12734,-0.42582 -0.25216,-0.85143 -0.42161,-1.26293 l -0.38204,-0.84197 c -0.17934,-0.41318 -0.3492,-0.83038 -0.47697,-1.26294 -0.0617,-0.2088 -0.11177,-0.41823 -0.15513,-0.63147 l -0.0505,-0.41992 0.0263,-0.40667 0.0549,-0.18628 0.0871,-0.16334 0.1204,-0.13051 0.32416,-0.12965 0.38561,0.061 0.38141,0.2246 0.33152,0.33699 0.14124,0.19386 0.12924,0.2027 0.11703,0.20776 0.21807,0.41992 c 0.13787,0.27806 0.27616,0.55591 0.39657,0.84196 0.0876,0.20776 0.16692,0.4174 0.23743,0.63147 l 0.18691,0.63147 c 0.1004,0.34984 0.20018,0.70009 0.29153,1.05245 l 0.1486,0.63147 0.1061,0.42098 c 0.11618,0.42035 0.23869,0.8386 0.33909,1.26294 l 0.22691,1.05245 c 0.14124,0.6361 0.30311,1.26778 0.48118,1.89441 l 0.18291,0.63146 0.1183,0.42099 c 0.16692,0.57884 0.33804,1.16274 0.64915,1.6837 0.22059,0.37005 0.49276,0.71693 0.81438,1.00467 l 0.40436,0.31279 0.20818,0.1183 0.20986,0.0914 0.21027,0.0627 0.42098,0.0518 0.2105,-0.006 0.21048,-0.0244 0.2105,-0.0404 0.21048,-0.0564 0.42077,-0.16165 0.41804,-0.23786 0.2046,-0.15071 0.38498,-0.35552 0.32941,-0.4014 0.25933,-0.41804 c 0.11156,-0.20185 0.20038,-0.41656 0.28374,-0.63125 0.10714,-0.27596 0.19849,-0.55843 0.28375,-0.84197 0.14438,-0.48181 0.27195,-0.97224 0.32562,-1.47342 0.0678,-0.62916 0.0122,-1.26399 0.0556,-1.89442 0.0144,-0.21195 0.0411,-0.42118 0.0703,-0.63146 l 0.0855,-0.63147 c 0.06,-0.6302 0.0113,-1.26357 0.0547,-1.8944 l 0.0411,-0.42099 0.0905,-0.63147 0.0419,-0.42098 0.0233,-0.42097 0.0305,-0.42098 0.025,-0.21049 0.0318,-0.2105 c 0.0663,-0.35446 0.13155,-0.70872 0.24375,-1.05245 0.11808,-0.36183 0.27889,-0.70956 0.44476,-1.05139 0.18713,-0.38604 0.36983,-0.80617 0.74493,-1.04761 l 0.34604,-0.14945 0.20333,-0.036 0.0996,-0.018 0.35088,-0.013 c -0.004,0.35362 -8.7e-4,0.70535 -0.0357,1.05771 -0.0343,0.35067 -0.10546,0.69652 -0.13892,1.04719 -0.0202,0.21028 -0.0271,0.42034 -0.0336,0.63147 -0.009,0.281 -0.007,0.56285 -0.0463,0.84196 l -0.081,0.42098 c -0.0724,0.28079 -0.16144,0.55737 -0.21785,0.84195 -0.0552,0.27849 -0.0766,0.56054 -0.11051,0.84197 l -0.0568,0.42098 -0.0613,0.42098 c -0.0248,0.21048 -0.0427,0.41971 -0.0518,0.63146 l -0.0272,0.84197 -0.0411,0.42098 c -0.0488,0.35046 -0.10756,0.69903 -0.13154,1.05244 -0.0145,0.21007 -0.0162,0.42099 -0.0181,0.63147 l -6.5e-4,0.63147 v 2.1049 h 3.9993 l 1.26295,-6.5e-4 c 0.35172,-0.004 0.70724,-0.004 1.05244,-0.0819 0.21701,-0.0486 0.42309,-0.12166 0.62621,-0.21154 0.20628,-0.0911 0.40456,-0.2027 0.60326,-0.30921 l 0.10272,-0.0582 0.35172,-0.18039 -2.1e-4,-1.05771 c -6.3e-4,-0.27869 4.3e-4,-0.55842 -0.0187,-0.8367 -0.0291,-0.42392 -0.1084,-0.84132 -0.15891,-1.26293 l -0.0653,-0.63148 -0.14524,-1.05245 -0.0926,-0.84195 c -0.0602,-0.42415 -0.15597,-0.84154 -0.23175,-1.26294 l -0.0714,-0.42098 -0.11493,-0.84196 c -0.0396,-0.28058 -0.0907,-0.5597 -0.11766,-0.84196 -0.0402,-0.41971 -0.0351,-0.84175 -0.0357,-1.26294 v -1.68392 l 0.35089,0.0992 0.0996,0.0524 0.37298,0.21513 0.33532,0.31278 0.26668,0.38225 0.20123,0.41256 0.0825,0.20986 0.14124,0.42076 0.0606,0.2105 c 0.0724,0.27911 0.13555,0.55949 0.19302,0.84196 0.0711,0.34836 0.13955,0.69841 0.17534,1.05245 0.0427,0.41992 0.0312,0.84279 0.0717,1.26294 l 0.11535,0.84196 0.0267,0.21049 0.0652,0.63147 0.0567,0.42098 0.0612,0.42097 c 0.0249,0.2105 0.0421,0.41972 0.0526,0.63148 0.0137,0.28079 0.0147,0.56179 0.0433,0.84195 0.036,0.35446 0.10735,0.70304 0.1745,1.05246 l 0.15808,0.84195 0.11324,0.63147 0.0474,0.21049 c 0.0573,0.21344 0.11809,0.42413 0.19492,0.63147 0.10503,0.28395 0.21765,0.56433 0.33994,0.84112 l 0.2147,0.41276 0.28268,0.385 0.16987,0.1726 0.18586,0.15576 0.40141,0.2488 0.20818,0.0884 0.42013,0.0935 c 0.55022,0.0399 1.05413,-0.25806 1.47027,-0.58642 l 0.40457,-0.36015 0.19112,-0.19745 0.18018,-0.20459 0.32415,-0.41803 0.27574,-0.42077 0.23196,-0.42098 c 0.10693,-0.2027 0.19218,-0.41824 0.27553,-0.63147 l 0.15219,-0.42098 0.28311,-0.84196 c 0.18649,-0.55927 0.37972,-1.11686 0.54158,-1.68391 0.0994,-0.34858 0.18546,-0.70094 0.27364,-1.05246 0.10567,-0.42034 0.21386,-0.84048 0.31069,-1.26294 0.14398,-0.62872 0.25764,-1.26377 0.39193,-1.8944 0.0901,-0.42309 0.19071,-0.84386 0.29869,-1.26294 0.12882,-0.50012 0.26479,-0.99877 0.4736,-1.47259 l 0.19891,-0.41256 0.11324,-0.19681 0.26732,-0.35256 0.32311,-0.26439 0.36119,-0.15891 0.097,-0.0375 0.34837,-0.0516 -0.004,0.35172 c -0.005,0.16672 -0.0137,0.33405 -0.0327,0.49971 l -0.13914,1.04298 c -0.028,0.27995 -0.0358,0.56137 -0.0537,0.84195 l -0.0427,0.42099 c -0.0465,0.35341 -0.1204,0.70388 -0.19408,1.05244 -0.14945,0.70746 -0.32836,1.40944 -0.52601,2.1049 l -0.18292,0.63147 -0.24016,0.84197 c -0.0836,0.28268 -0.17724,0.56221 -0.26965,0.84195 l -0.27952,0.84196 c -0.1103,0.34689 -0.22291,0.6923 -0.28311,1.05203 -0.0817,0.48644 -0.0674,0.98256 -0.0687,1.47384 0.4214,-2e-4 0.84301,0.004 1.264,-0.0187 0.21133,-0.012 0.42139,-0.0411 0.63041,-0.0736 l 0.42098,-0.0771 0.63147,-0.13029 0.42098,-0.096 0.63147,-0.13809 0.42098,-0.061 c 0.34941,-0.0375 0.70157,-0.0348 1.05246,-0.0364 l 1.05244,-8.8e-4 c 0.28079,-0.002 0.56243,-0.006 0.84196,-0.0358 0.50117,-0.0537 0.99162,-0.18123 1.47343,-0.32563 0.35615,-0.10692 0.70618,-0.22922 1.05245,-0.36456 0.21427,-0.0838 0.42413,-0.18082 0.63147,-0.28058 0.36141,-0.17366 0.71566,-0.3631 1.05244,-0.58138 0.44141,-0.28584 0.86428,-0.60957 1.24421,-0.97372 0.32752,-0.31384 0.61737,-0.66284 0.90111,-1.01604 0.32583,-0.4054 0.64073,-0.81965 0.91374,-1.26273 0.20943,-0.33973 0.3915,-0.69566 0.57,-1.05244 l 0.30458,-0.63147 0.1785,-0.42098 c 0.0838,-0.20565 0.15218,-0.41888 0.21554,-0.63148 0.0825,-0.27679 0.15197,-0.55843 0.20607,-0.84195 0.0534,-0.27911 0.085,-0.56075 0.1244,-0.84196 l 0.0612,-0.42098 c 0.0314,-0.21007 0.0659,-0.41972 0.0861,-0.63147 0.0402,-0.41971 0.0351,-0.84175 0.0358,-1.26294 l -6.6e-4,-0.84196 c -0.003,-0.281 -0.007,-0.56201 -0.0351,-0.84195 -0.0354,-0.35384 -0.1023,-0.70515 -0.17765,-1.05246 -0.12419,-0.57379 -0.28753,-1.14211 -0.51549,-1.68392 l -0.19218,-0.42098 -0.2288,-0.42098 -0.26016,-0.42098 c -0.18566,-0.28837 -0.38162,-0.57106 -0.59232,-0.84174 -0.16692,-0.21449 -0.34331,-0.42056 -0.52412,-0.62347 l -0.3631,-0.39257 -0.35699,-0.35909 c -0.18123,-0.16608 -0.36289,-0.32689 -0.56074,-0.47298 -0.19681,-0.14524 -0.40289,-0.2709 -0.61358,-0.39403 l -0.42014,-0.21513 c -0.20418,-0.10061 -0.41867,-0.18018 -0.63147,-0.26037 -0.20628,-0.0777 -0.4195,-0.13598 -0.63147,-0.19596 -0.20734,-0.0587 -0.4195,-0.10715 -0.63147,-0.14629 l -0.42098,-0.0642 -0.63147,-0.0661 -1.05244,-0.14229 -1.05245,-0.0714 c -0.35405,-0.037 -0.70389,-0.1044 -1.05246,-0.17555 -0.4254,-0.087 -0.85943,-0.17323 -1.26272,-0.33868 -0.36794,-0.15113 -0.71251,-0.35362 -1.01372,-0.61463 -0.18481,-0.16018 -0.35952,-0.34141 -0.50434,-0.53886 l -0.27806,-0.40455 c -0.1246,-0.20628 -0.24227,-0.41488 -0.35425,-0.62831 -0.17997,-0.34268 -0.34541,-0.69357 -0.49086,-1.05246 -0.13997,-0.34499 -0.25869,-0.69883 -0.37509,-1.05245 -0.092,-0.2791 -0.18166,-0.55906 -0.26164,-0.84195 -0.0787,-0.27849 -0.14776,-0.55948 -0.21113,-0.84196 -0.0781,-0.349 -0.14692,-0.70052 -0.21069,-1.05245 l -0.21786,-1.26295 -0.20312,-1.05244 -0.17639,-1.05245 -0.24459,-1.47342 -0.1465,-1.05246 -0.20502,-1.26293 c -0.0459,-0.27996 -0.0951,-0.55949 -0.12293,-0.84197 -0.0414,-0.41993 -0.0309,-0.8428 -0.0716,-1.26293 l -0.11536,-0.84196 -0.11871,-1.05245 -0.0994,-0.63148 -0.17512,-1.05245 c -0.0708,-0.42119 -0.13303,-0.84406 -0.21659,-1.26293 -0.0709,-0.35594 -0.15114,-0.70935 -0.27069,-1.05246 -0.0752,-0.21574 -0.16524,-0.42329 -0.25953,-0.63104 l -0.21491,-0.41613 -0.22776,-0.39257 -0.12124,-0.2107 -0.0638,-0.10272 -0.18607,-0.35173 -0.35173,0.0722 -0.31279,0.14439 c -0.20691,0.13303 -0.40393,0.27363 -0.58053,0.44602 l -0.37888,0.39299 c -0.23996,0.26986 -0.47129,0.5477 -0.72725,0.80302 -0.31952,0.31889 -0.66957,0.60621 -1.01687,0.89374 -0.20796,0.17239 -0.41467,0.34773 -0.63126,0.5096 -0.40645,0.30374 -0.82365,0.59505 -1.26294,0.84996 -0.27216,0.15808 -0.55233,0.30247 -0.84196,0.42623 l -0.63147,0.25575 -0.63147,0.23343 -0.42097,0.16019 c -0.28017,0.11135 -0.55823,0.22606 -0.84197,0.32815 -0.20648,0.0741 -0.41866,0.13493 -0.63146,0.18797 -0.27764,0.0695 -0.55822,0.12061 -0.84196,0.1566 l -0.84197,0.0935 c -0.63441,0.0901 -1.25599,0.26121 -1.8944,0.325 -0.27995,0.028 -0.56096,0.0327 -0.84196,0.0351 l -0.84196,6.6e-4 h -1.26294 l -0.63147,-0.004 c -0.28101,-0.007 -0.56369,-0.0152 -0.84196,-0.06 l -0.21049,-0.0345 c -0.28269,-0.0558 -0.56243,-0.12229 -0.84196,-0.19175 -0.42456,-0.10568 -0.85059,-0.21302 -1.26294,-0.36099 -0.36057,-0.12946 -0.70809,-0.28943 -1.05245,-0.45656 -0.35614,-0.17323 -0.70746,-0.35636 -1.05244,-0.55085 -0.21597,-0.12166 -0.42162,-0.25848 -0.63148,-0.39025 l -0.42098,-0.26879 -0.42098,-0.21364 -0.42098,-0.0939 -0.21049,0.009 c -0.22628,0.0284 -0.4353,0.12545 -0.63063,0.23806 l -0.4134,0.28437 -0.39067,0.32858 c -0.18123,0.16607 -0.35741,0.34352 -0.51001,0.53696 l -0.15114,0.19344 -0.2829,0.40519 c -0.13281,0.20671 -0.26289,0.41424 -0.38372,0.62832 -0.19197,0.34015 -0.36246,0.69082 -0.50981,1.05245 -0.22312,0.54748 -0.38498,1.1158 -0.54601,1.68391 -0.11914,0.41951 -0.24269,0.83817 -0.34204,1.26294 l -0.13345,0.63147 -0.21071,1.05245 -0.21554,1.05245 c -0.077,0.3511 -0.16607,0.69946 -0.23406,1.05245 -0.0534,0.27805 -0.0766,0.55948 -0.0895,0.84196 l -0.008,0.63147 -2.1e-4,1.05245 c -2.1e-4,0.28036 0.004,0.56179 -0.008,0.84196 -0.009,0.21174 -0.0259,0.42118 -0.0518,0.63146 l -0.0911,0.63147 c -0.0549,0.42119 -0.0775,0.84701 -0.16817,1.26295 -0.0467,0.21427 -0.11177,0.42244 -0.17745,0.63146 l -0.0716,0.2105 -0.16102,0.42097 c -0.12588,0.28859 -0.25953,0.5719 -0.42393,0.84111 l -0.27574,0.41341 -0.15576,0.19933 -0.16839,0.19113 -0.37131,0.34857 -0.19933,0.15576 -0.20523,0.14314 -0.20817,0.13197 -0.420144,0.22712 c -0.2709,0.1305 -0.554006,0.22881 -0.841961,0.31343 l -0.841956,0.22437 c -0.638834,0.17597 -1.26736,0.38647 -1.894407,0.6001 -0.282057,0.096 -0.563697,0.19282 -0.841961,0.29933 l -1.052452,0.41572 c -0.493806,0.19743 -0.989722,0.39087 -1.473427,0.61231 l -0.631471,0.30457 -0.841955,0.42036 c -0.496757,0.249 -0.995828,0.49381 -1.473433,0.77881 -0.214068,0.12776 -0.424558,0.26205 -0.631465,0.4014 -0.215124,0.14461 -0.427719,0.29363 -0.631471,0.45424 -0.292373,0.23049 -0.570221,0.47802 -0.833542,0.74134 -0.262689,0.26269 -0.511909,0.53928 -0.73903,0.83354 -0.40119,0.51991 -0.711034,1.09814 -1.004033,1.68392 -0.172817,0.34563 -0.340785,0.69399 -0.485392,1.05245 -0.165863,0.41109 -0.305211,0.83355 -0.415716,1.26293 -0.0537,0.20882 -0.09893,0.41994 -0.141028,0.63148 -0.04171,0.20944 -0.08083,0.41972 -0.109247,0.63147 -0.04737,0.34942 -0.06315,0.70156 -0.09493,1.05244 -0.02548,0.28059 -0.07409,0.5597 -0.08062,0.84197 -0.0097,0.42392 0.06841,0.84112 0.09599,1.26294 0.02757,0.42055 0.0101,0.84342 0.05539,1.26294 l 0.06106,0.42098 0.140181,0.63146 0.105246,0.42098 0.11051,0.42098 c 0.0802,0.28374 0.163127,0.56896 0.275742,0.84197 l 0.180807,0.42098 0.210282,0.42097 0.238063,0.42098 c 0.173866,0.28563 0.351727,0.56896 0.544961,0.84196 0.205225,0.28984 0.420134,0.57211 0.661149,0.83354 l 0.390665,0.38983 0.205231,0.17849 0.20817,0.16461 0.209859,0.14818 0.420772,0.24544 0.420981,0.17555 0.21049,0.0623 0.210484,0.0459 0.210491,0.032 0.420981,0.0312 1.052451,0.009 h 3.157344 l 0.841961,0.008 0.210491,0.0105 0.420981,0.0414 0.631465,0.0932 0.841961,0.11409 c 0.350046,0.0498 0.698405,0.11598 1.052452,0.13155 0.210067,0.009 0.42203,0.007 0.631465,-0.0147 l 1.052455,-0.13787 c 0.20901,-0.0225 0.4214,-0.0286 0.63147,-0.0246 0.21175,0.004 0.4214,0.0229 0.63146,0.0488 l 0.63147,0.0901 c 0.27932,0.0364 0.56033,0.0541 0.84197,0.0541 0.20985,0 0.42266,-0.006 0.63146,-0.0299 0.52075,-0.0602 1.03351,-0.16754 1.54268,-0.29068 l 0.35174,-0.0943 m -20.838498,-1.47343 -0.03936,-0.35173 -0.05917,-0.31363 c -0.06354,-0.27279 -0.133242,-0.54412 -0.227538,-0.80849 -0.102717,-0.28796 -0.227748,-0.56979 -0.37425,-0.83838 -0.182078,-0.3332 -0.390463,-0.66199 -0.673993,-0.91899 l -0.348567,-0.25933 -0.191122,-0.10482 -0.404565,-0.17387 -0.208178,-0.073 -0.420133,-0.13261 -0.420981,-0.13913 -0.420981,-0.16924 c -0.214909,-0.0958 -0.428977,-0.20206 -0.631465,-0.32226 l -0.210282,-0.12376 -0.209858,-0.13409 -0.208177,-0.14398 -0.404558,-0.32414 -0.371937,-0.37132 -0.169864,-0.19932 -0.308157,-0.41341 -0.140396,-0.20986 c -0.129032,-0.2067 -0.254902,-0.41319 -0.363941,-0.63125 -0.169024,-0.33763 -0.295944,-0.69231 -0.407086,-1.05245 -0.06464,-0.20882 -0.11998,-0.41972 -0.173868,-0.63148 l -0.09135,-0.42097 -0.06125,-0.42098 -0.01766,-0.21049 -0.01776,-0.63117 v -0.42098 l 0.0074,-0.42098 c 0.01114,-0.21176 0.02464,-0.4214 0.05494,-0.63147 0.04086,-0.28332 0.102716,-0.56643 0.180806,-0.84196 0.06021,-0.21239 0.121459,-0.4235 0.195972,-0.63147 0.103139,-0.28732 0.224592,-0.56706 0.356778,-0.84196 0.174915,-0.36352 0.367093,-0.71735 0.59211,-1.05245 0.195756,-0.29153 0.415082,-0.56685 0.632729,-0.84196 l 0.665149,-0.84196 c 0.158709,-0.20733 0.311734,-0.41803 0.462238,-0.63147 l 0.278897,-0.42098 0.127558,-0.21049 0.214486,-0.42097 0.07768,-0.2105 0.07325,-0.42098 -0.05767,-0.41992 -0.20207,-0.41046 -0.324364,-0.37383 -0.191755,-0.16102 -0.409616,-0.25175 -0.209649,-0.0892 -0.420766,-0.11576 -0.21049,-0.0327 -0.420981,-0.0314 -0.841955,-0.009 -0.841962,2.1e-4 c -0.35131,0.002 -0.702406,0.002 -1.052452,0.0356 -0.352992,0.0341 -0.703032,0.0991 -1.052446,0.15807 l -0.631471,0.11113 c -0.282474,0.0568 -0.562426,0.12567 -0.841961,0.19555 -0.283316,0.0709 -0.566213,0.14882 -0.841955,0.24544 -0.359307,0.12587 -0.706616,0.2831 -1.052453,0.44138 -0.286267,0.13115 -0.569582,0.27133 -0.841955,0.42941 l -0.420981,0.25996 -0.210491,0.1467 -0.42098,0.33616 -0.420766,0.38582 -0.418035,0.41278 c -0.205225,0.2046 -0.40435,0.41571 -0.598843,0.63062 l -0.54601,0.63147 c -0.183967,0.21365 -0.36899,0.42519 -0.561169,0.63147 -0.199966,0.2147 -0.406455,0.42329 -0.613368,0.63147 l -1.258935,1.26294 -0.404565,0.42097 -0.191122,0.2105 -0.347941,0.42098 -0.154082,0.21049 -0.266684,0.42098 c -0.187552,0.33088 -0.331317,0.68283 -0.421196,1.05244 -0.06736,0.27659 -0.09219,0.5597 -0.122293,0.84197 l -0.04907,0.42098 c -0.03643,0.281 -0.08882,0.55969 -0.115138,0.84196 -0.01981,0.20986 -0.0286,0.42055 -0.02464,0.63147 0.0039,0.21132 0.0217,0.42182 0.04862,0.63146 l 0.09051,0.63147 0.04106,0.42099 c 0.02417,0.35025 0.01538,0.70177 0.02718,1.05244 0.0072,0.21134 0.02418,0.42224 0.05513,0.63148 0.03161,0.21363 0.07956,0.42203 0.131769,0.63147 l 0.13008,0.42097 0.07809,0.21049 0.173866,0.42098 c 0.186705,0.43298 0.390672,0.85943 0.635473,1.26295 0.318466,0.52474 0.68977,1.01834 1.122331,1.45447 0.49823,0.50202 1.07139,0.92721 1.664341,1.31009 0.471074,0.30437 0.958995,0.58074 1.473426,0.80491 0.207545,0.0903 0.419091,0.16945 0.631471,0.24755 l 0.21049,0.073 c 0.484761,0.15408 0.977725,0.27932 1.473427,0.3932 0.279535,0.064 0.56012,0.12566 0.841961,0.17807 0.209442,0.0392 0.419509,0.0844 0.631472,0.10862 l 0.21049,0.0249 0.210491,0.0164 c 0.281209,0.0109 0.561794,0.0141 0.841955,-0.0195 0.212178,-0.0255 0.427087,-0.0631 0.631471,-0.12693 l 0.420981,-0.14292 c 0.213645,-0.0863 0.42287,-0.1787 0.631472,-0.27658 0.355721,-0.1665 0.706823,-0.34499 1.052445,-0.53191 l 0.841961,-0.47697 0.420981,-0.23174 0.420975,-0.20144 0.42098,-0.14524 0.420981,-0.0619 0.420981,0.0208 c 0.211963,0.0299 0.421398,0.0687 0.631471,0.11009 0.281842,0.0556 0.562427,0.11851 0.841955,0.18502 l 0.631472,0.15598 c 0.345836,0.0827 0.695035,0.17744 1.052451,0.18964 l 0.420975,-0.0177 0.419932,-0.0802 0.412554,-0.12124 0.499703,-0.18229 z"
     id="path14-5" />
  <path
     style="fill:#c34954;stroke:none;stroke-width:0.210489"
     d="m 99.87295,113.09978 v 0.42098 c 5.57777,2.14806 14.52212,-0.60746 17.26016,-6.10419 -1.29493,2e-4 -2.5625,0.0501 -3.78881,0.51927 -1.42649,0.54559 -2.59113,1.5452 -3.99952,2.08659 -1.49595,0.57526 -3.12198,0.28942 -4.63056,0.71755 -1.72855,0.49044 -3.19629,1.67129 -4.84127,2.3598 z"
     id="path5936" />
  <circle
     style="fill:#000000;stroke-width:0.210489"
     id="path856"
     cx="128.60391"
     cy="72.152771"
     r="2.7998807" />
</svg>
